<svg width="61" height="57" viewBox="0 0 61 57" fill="none" xmlns="http://www.w3.org/2000/svg">
<path d="M30.2197 2.96859L10.9823 8.17715C3.97194 10.0752 1.05779 15.1397 2.92478 22.1804L8.04314 41.4824C9.91012 48.523 14.9399 51.4367 21.9502 49.5386L41.1876 44.33C48.198 42.432 51.0938 37.3724 49.2268 30.3318L44.1085 11.0298C42.2415 3.98914 37.2301 1.07051 30.2197 2.96859Z" fill="url(#paint0_linear_171_5851)"/>
<g opacity="0.5" filter="url(#filter0_f_171_5851)">
<path d="M28.9896 11.5243L16.2749 14.9669C11.6415 16.2214 9.68175 19.4414 10.8562 23.8703L14.0758 36.012C15.2502 40.4409 18.5408 42.2394 23.1742 40.9849L35.8888 37.5424C40.5222 36.2879 42.4699 33.0711 41.2955 28.6422L38.0759 16.5005C36.9015 12.0716 33.623 10.2698 28.9896 11.5243Z" fill="#E31352"/>
</g>
<g filter="url(#filter1_b_171_5851)">
<path d="M43.5634 13.125H25.1057C17.8886 13.125 13.0347 18.2271 13.0347 25.816V43.3305C13.0347 50.8979 17.8886 56 25.1057 56H43.5634C50.7805 56 55.6131 50.8979 55.6131 43.3305V25.816C55.6131 18.2271 50.7805 13.125 43.5634 13.125Z" fill="#FF749F" fill-opacity="0.35"/>
<path d="M43.5634 12.625H25.1057C21.3746 12.625 18.221 13.9467 16.0015 16.2801C13.784 18.6113 12.5347 21.9142 12.5347 25.816V43.3305C12.5347 47.2219 13.7843 50.5195 16.0017 52.8479C18.2212 55.1784 21.3747 56.5 25.1057 56.5H43.5634C47.2945 56.5 50.443 55.1783 52.6572 52.8474C54.8692 50.5188 56.1131 47.2213 56.1131 43.3305V25.816C56.1131 21.9148 54.8695 18.6119 52.6574 16.2805C50.4431 13.9468 47.2945 12.625 43.5634 12.625Z" stroke="url(#paint1_linear_171_5851)" stroke-linecap="round" stroke-linejoin="round"/>
</g>
<g filter="url(#filter2_b_171_5851)">
<path d="M57.8719 9.9751C56.1442 9.9751 54.7437 11.3854 54.7437 13.1251C54.7437 14.8648 56.1442 16.2751 57.8719 16.2751C59.5995 16.2751 61.0001 14.8648 61.0001 13.1251C61.0001 12.2897 60.6705 11.4885 60.0838 10.8977C59.4972 10.307 58.7015 9.9751 57.8719 9.9751Z" fill="url(#paint2_linear_171_5851)"/>
</g>
<g filter="url(#filter3_bd_171_5851)">
<path d="M45.4622 30.766L39.3781 38.6717C39.1221 39.0154 38.7382 39.2396 38.3145 39.2928C37.8908 39.3461 37.4638 39.2238 37.1316 38.9541L31.2909 34.3424L26.0304 41.1941C25.6495 41.8032 24.9076 42.0769 24.2252 41.86C23.5429 41.6431 23.0923 40.9903 23.1288 40.2717V40.2717C23.1256 39.9162 23.2446 39.5704 23.4657 39.2929L29.7558 31.1236C30.0087 30.7828 30.3875 30.5587 30.8067 30.502C31.2258 30.4454 31.6501 30.5609 31.9835 30.8225L37.8243 35.453L42.9537 28.8084C43.2003 28.4658 43.5745 28.2384 43.9908 28.1781C44.4071 28.1178 44.8299 28.2297 45.1627 28.4884C45.8502 29.0298 45.983 30.0236 45.4622 30.7284V30.766Z" fill="url(#paint3_linear_171_5851)"/>
<path d="M39.2196 38.5498L39.2195 38.5498L39.2177 38.5523C38.9941 38.8524 38.659 39.0479 38.2896 39.0944C37.9201 39.1408 37.5476 39.0342 37.2577 38.7988L37.2556 38.7971L31.4148 34.1854L31.2557 34.0598L31.1322 34.2206L25.8718 41.0723L25.866 41.0799L25.8609 41.088C25.5281 41.6201 24.8807 41.8585 24.2858 41.6694C23.6907 41.4802 23.2966 40.9104 23.3285 40.2819L23.1288 40.2717L23.3288 40.2699C23.326 39.9602 23.4297 39.6591 23.6222 39.4175L23.6222 39.4176L23.6242 39.4149L29.9143 31.2457L29.9143 31.2457L29.9164 31.2428C30.1373 30.9451 30.4679 30.7497 30.8335 30.7002C31.1988 30.6509 31.5687 30.7514 31.8597 30.9795C31.8598 30.9796 31.8599 30.9797 31.8601 30.9798L37.7 35.6097L37.8588 35.7356L37.9826 35.5752L43.112 28.9306L43.1121 28.9307L43.116 28.9252C43.331 28.6265 43.6571 28.4285 44.0194 28.376C44.3816 28.3236 44.7495 28.4208 45.0394 28.6459C45.6414 29.1203 45.758 29.9916 45.3013 30.6095L45.2622 30.6625V30.698L39.2196 38.5498Z" stroke="url(#paint4_linear_171_5851)" stroke-width="0.4"/>
</g>
<defs>
<filter id="filter0_f_171_5851" x="0.522949" y="1.13428" width="51.1069" height="50.241" filterUnits="userSpaceOnUse" color-interpolation-filters="sRGB">
<feFlood flood-opacity="0" result="BackgroundImageFix"/>
<feBlend mode="normal" in="SourceGraphic" in2="BackgroundImageFix" result="shape"/>
<feGaussianBlur stdDeviation="5" result="effect1_foregroundBlur_171_5851"/>
</filter>
<filter id="filter1_b_171_5851" x="-11.9653" y="-11.875" width="92.5784" height="92.875" filterUnits="userSpaceOnUse" color-interpolation-filters="sRGB">
<feFlood flood-opacity="0" result="BackgroundImageFix"/>
<feGaussianBlur in="BackgroundImage" stdDeviation="12"/>
<feComposite in2="SourceAlpha" operator="in" result="effect1_backgroundBlur_171_5851"/>
<feBlend mode="normal" in="SourceGraphic" in2="effect1_backgroundBlur_171_5851" result="shape"/>
</filter>
<filter id="filter2_b_171_5851" x="39.7437" y="-5.0249" width="36.2563" height="36.3" filterUnits="userSpaceOnUse" color-interpolation-filters="sRGB">
<feFlood flood-opacity="0" result="BackgroundImageFix"/>
<feGaussianBlur in="BackgroundImage" stdDeviation="7.5"/>
<feComposite in2="SourceAlpha" operator="in" result="effect1_backgroundBlur_171_5851"/>
<feBlend mode="normal" in="SourceGraphic" in2="effect1_backgroundBlur_171_5851" result="shape"/>
</filter>
<filter id="filter3_bd_171_5851" x="8.12671" y="13.1621" width="52.6533" height="43.7715" filterUnits="userSpaceOnUse" color-interpolation-filters="sRGB">
<feFlood flood-opacity="0" result="BackgroundImageFix"/>
<feGaussianBlur in="BackgroundImage" stdDeviation="7.5"/>
<feComposite in2="SourceAlpha" operator="in" result="effect1_backgroundBlur_171_5851"/>
<feColorMatrix in="SourceAlpha" type="matrix" values="0 0 0 0 0 0 0 0 0 0 0 0 0 0 0 0 0 0 127 0" result="hardAlpha"/>
<feOffset dx="5" dy="5"/>
<feGaussianBlur stdDeviation="5"/>
<feColorMatrix type="matrix" values="0 0 0 0 1 0 0 0 0 0.321569 0 0 0 0 0.54902 0 0 0 0.5 0"/>
<feBlend mode="normal" in2="effect1_backgroundBlur_171_5851" result="effect2_dropShadow_171_5851"/>
<feBlend mode="normal" in="SourceGraphic" in2="effect2_dropShadow_171_5851" result="shape"/>
</filter>
<linearGradient id="paint0_linear_171_5851" x1="29.8422" y1="28.2049" x2="-1.80984" y2="55.4997" gradientUnits="userSpaceOnUse">
<stop stop-color="#FF759F"/>
<stop offset="1" stop-color="#FF196E"/>
</linearGradient>
<linearGradient id="paint1_linear_171_5851" x1="19.8125" y1="18.12" x2="47.2016" y2="51.8074" gradientUnits="userSpaceOnUse">
<stop stop-color="white" stop-opacity="0.25"/>
<stop offset="1" stop-color="white" stop-opacity="0"/>
</linearGradient>
<linearGradient id="paint2_linear_171_5851" x1="58.3325" y1="13.547" x2="52.8205" y2="16.2085" gradientUnits="userSpaceOnUse">
<stop stop-color="#FF759F"/>
<stop offset="1" stop-color="#FF196E"/>
</linearGradient>
<linearGradient id="paint3_linear_171_5851" x1="44.1739" y1="30.649" x2="18.9859" y2="31.9999" gradientUnits="userSpaceOnUse">
<stop stop-color="white"/>
<stop offset="1" stop-color="white" stop-opacity="0.2"/>
</linearGradient>
<linearGradient id="paint4_linear_171_5851" x1="26.7327" y1="29.7665" x2="33.842" y2="44.2501" gradientUnits="userSpaceOnUse">
<stop stop-color="white" stop-opacity="0.25"/>
<stop offset="1" stop-color="white" stop-opacity="0"/>
</linearGradient>
</defs>
</svg>
