<svg width="59" height="54" viewBox="0 0 59 54" fill="none" xmlns="http://www.w3.org/2000/svg">
<path fill-rule="evenodd" clip-rule="evenodd" d="M41.116 9.47733C40.2974 8.51252 39.4787 8.07206 38.2302 8.07206H10.5901C9.93518 8.07206 9.40305 7.56868 9.34165 6.89541L8.95279 2.19718C8.89139 1.48406 8.37972 0.898877 7.68386 0.770934L2.80258 0.0179596C1.96345 -0.109983 1.16525 0.458418 1.02199 1.31626C0.878719 2.15523 1.45178 2.97323 2.27045 3.12005V3.12005C4.0914 3.44136 5.46671 4.95014 5.61847 6.79299L7.24383 26.5294C7.46896 29.298 9.72028 31.4352 12.4423 31.4352H34.7714C37.3706 31.4352 39.581 29.4867 39.9494 26.8419L41.8938 13.0828C42.078 11.8264 41.9347 10.4421 41.116 9.47733" fill="url(#paint0_linear_171_5858)"/>
<g filter="url(#filter0_f_171_5858)">
<rect x="10.7334" y="13.6831" width="24.5454" height="14.7777" rx="5" fill="#2AA42B" fill-opacity="0.5"/>
</g>
<g filter="url(#filter1_b_171_5858)">
<mask id="path-3-outside-1_171_5858" maskUnits="userSpaceOnUse" x="12" y="6.30176" width="47" height="48" fill="black">
<rect fill="white" x="12" y="6.30176" width="47" height="48"/>
<path fill-rule="evenodd" clip-rule="evenodd" d="M17.5159 17.0793C16.1584 17.0793 15.2681 17.5583 14.3779 18.6074C13.4877 19.6565 13.3319 21.1618 13.5322 22.528L15.6465 37.4896C16.0471 40.3656 18.4507 42.4844 21.2771 42.4844H45.5576C48.5176 42.4844 50.9657 40.1603 51.2105 37.1497L53.258 12.2875L56.6185 11.6945C57.5087 11.5348 58.1319 10.6454 57.9761 9.73306C57.8203 8.80024 56.9523 8.18216 56.0399 8.32129L50.732 9.14007C49.9753 9.27919 49.4189 9.91552 49.3522 10.691L48.9293 15.7998C48.8625 16.5319 48.2839 17.0793 47.5717 17.0793H17.5159ZM45.9144 46.0894C47.7839 46.0894 49.2973 47.6403 49.2973 49.5561C49.2973 51.4491 47.7839 53 45.9144 53C44.0673 53 42.5539 51.4491 42.5539 49.5561C42.5539 47.6403 44.0673 46.0894 45.9144 46.0894ZM20.8774 46.0894C22.7469 46.0894 24.2602 47.6403 24.2602 49.5561C24.2602 51.4491 22.7469 53 20.8774 53C19.0302 53 17.5169 51.4491 17.5169 49.5561C17.5169 47.6403 19.0302 46.0894 20.8774 46.0894Z"/>
</mask>
<path fill-rule="evenodd" clip-rule="evenodd" d="M17.5159 17.0793C16.1584 17.0793 15.2681 17.5583 14.3779 18.6074C13.4877 19.6565 13.3319 21.1618 13.5322 22.528L15.6465 37.4896C16.0471 40.3656 18.4507 42.4844 21.2771 42.4844H45.5576C48.5176 42.4844 50.9657 40.1603 51.2105 37.1497L53.258 12.2875L56.6185 11.6945C57.5087 11.5348 58.1319 10.6454 57.9761 9.73306C57.8203 8.80024 56.9523 8.18216 56.0399 8.32129L50.732 9.14007C49.9753 9.27919 49.4189 9.91552 49.3522 10.691L48.9293 15.7998C48.8625 16.5319 48.2839 17.0793 47.5717 17.0793H17.5159ZM45.9144 46.0894C47.7839 46.0894 49.2973 47.6403 49.2973 49.5561C49.2973 51.4491 47.7839 53 45.9144 53C44.0673 53 42.5539 51.4491 42.5539 49.5561C42.5539 47.6403 44.0673 46.0894 45.9144 46.0894ZM20.8774 46.0894C22.7469 46.0894 24.2602 47.6403 24.2602 49.5561C24.2602 51.4491 22.7469 53 20.8774 53C19.0302 53 17.5169 51.4491 17.5169 49.5561C17.5169 47.6403 19.0302 46.0894 20.8774 46.0894Z" fill="#72DC60" fill-opacity="0.35"/>
<path d="M13.5322 22.528L14.5217 22.3829L14.5224 22.388L13.5322 22.528ZM15.6465 37.4896L16.6366 37.3496L16.6369 37.3516L15.6465 37.4896ZM51.2105 37.1497L50.2138 37.0687L50.2139 37.0677L51.2105 37.1497ZM53.258 12.2875L52.2613 12.2054C52.2986 11.7525 52.6367 11.3817 53.0842 11.3027L53.258 12.2875ZM56.6185 11.6945L56.795 12.6788L56.7923 12.6793L56.6185 11.6945ZM57.9761 9.73306L56.9904 9.90139L56.9898 9.89779L57.9761 9.73306ZM56.0399 8.32129L55.8874 7.33298L55.8892 7.33271L56.0399 8.32129ZM50.732 9.14007L50.5512 8.15656C50.5606 8.15482 50.5701 8.15322 50.5795 8.15176L50.732 9.14007ZM49.3522 10.691L48.3556 10.6085L48.3558 10.6052L49.3522 10.691ZM48.9293 15.7998L49.9259 15.8823L49.9252 15.8906L48.9293 15.7998ZM13.6154 17.9604C14.1175 17.3687 14.6647 16.8842 15.3257 16.5549C15.993 16.2224 16.7133 16.0793 17.5159 16.0793V18.0793C16.9609 18.0793 16.5573 18.1757 16.2176 18.345C15.8716 18.5174 15.5286 18.7969 15.1404 19.2544L13.6154 17.9604ZM12.5428 22.673C12.3235 21.1769 12.4578 19.3247 13.6154 17.9604L15.1404 19.2544C14.5176 19.9883 14.3404 21.1467 14.5217 22.3829L12.5428 22.673ZM14.6563 37.6295L12.5421 22.6679L14.5224 22.388L16.6366 37.3496L14.6563 37.6295ZM21.2771 43.4844C17.9367 43.4844 15.1234 40.9828 14.656 37.6275L16.6369 37.3516C16.9708 39.7484 18.9646 41.4844 21.2771 41.4844V43.4844ZM45.5576 43.4844H21.2771V41.4844H45.5576V43.4844ZM52.2072 37.2308C51.922 40.7377 49.061 43.4844 45.5576 43.4844V41.4844C47.9742 41.4844 50.0093 39.5829 50.2138 37.0687L52.2072 37.2308ZM54.2546 12.3696L52.2071 37.2318L50.2139 37.0677L52.2613 12.2054L54.2546 12.3696ZM56.7923 12.6793L53.4317 13.2723L53.0842 11.3027L56.4447 10.7097L56.7923 12.6793ZM58.9618 9.56473C59.2085 11.0091 58.2347 12.4206 56.795 12.6788L56.442 10.7102C56.7828 10.6491 57.0553 10.2816 56.9904 9.90139L58.9618 9.56473ZM55.8892 7.33271C57.3413 7.1113 58.7164 8.09542 58.9624 9.56833L56.9898 9.89779C56.9242 9.50507 56.5634 9.25303 56.1906 9.30986L55.8892 7.33271ZM50.5795 8.15176L55.8874 7.33298L56.1923 9.3096L50.8844 10.1284L50.5795 8.15176ZM48.3558 10.6052C48.4594 9.4026 49.3305 8.38098 50.5512 8.15656L50.9128 10.1236C50.6201 10.1774 50.3785 10.4284 50.3485 10.7768L48.3558 10.6052ZM47.9327 15.7173L48.3556 10.6085L50.3487 10.7735L49.9259 15.8823L47.9327 15.7173ZM47.5717 16.0793C47.7374 16.0793 47.9109 15.9559 47.9334 15.709L49.9252 15.8906C49.8142 17.1079 48.8304 18.0793 47.5717 18.0793V16.0793ZM17.5159 16.0793H47.5717V18.0793H17.5159V16.0793ZM48.2973 49.5561C48.2973 48.1693 47.2087 47.0894 45.9144 47.0894V45.0894C48.3591 45.0894 50.2973 47.1112 50.2973 49.5561H48.2973ZM45.9144 52C47.2129 52 48.2973 50.9157 48.2973 49.5561H50.2973C50.2973 51.9825 48.3549 54 45.9144 54V52ZM43.5539 49.5561C43.5539 50.9201 44.6425 52 45.9144 52V54C43.492 54 41.5539 51.9782 41.5539 49.5561H43.5539ZM45.9144 47.0894C44.6467 47.0894 43.5539 48.165 43.5539 49.5561H41.5539C41.5539 47.1156 43.4878 45.0894 45.9144 45.0894V47.0894ZM23.2602 49.5561C23.2602 48.1693 22.1716 47.0894 20.8774 47.0894V45.0894C23.3221 45.0894 25.2602 47.1112 25.2602 49.5561H23.2602ZM20.8774 52C22.1759 52 23.2602 50.9157 23.2602 49.5561H25.2602C25.2602 51.9825 23.3179 54 20.8774 54V52ZM18.5169 49.5561C18.5169 50.9201 19.6055 52 20.8774 52V54C18.455 54 16.5169 51.9782 16.5169 49.5561H18.5169ZM20.8774 47.0894C19.6097 47.0894 18.5169 48.165 18.5169 49.5561H16.5169C16.5169 47.1156 18.4507 45.0894 20.8774 45.0894V47.0894Z" fill="url(#paint1_linear_171_5858)" mask="url(#path-3-outside-1_171_5858)"/>
</g>
<g filter="url(#filter2_bd_171_5858)">
<mask id="path-5-inside-2_171_5858" fill="white">
<path fill-rule="evenodd" clip-rule="evenodd" d="M24.8378 28.9357H31.0025C31.9372 28.9357 32.6716 28.1603 32.6716 27.2252C32.6716 26.2673 31.9372 25.5146 31.0025 25.5146H24.8378C23.903 25.5146 23.1686 26.2673 23.1686 27.2252C23.1686 28.1603 23.903 28.9357 24.8378 28.9357"/>
</mask>
<path fill-rule="evenodd" clip-rule="evenodd" d="M24.8378 28.9357H31.0025C31.9372 28.9357 32.6716 28.1603 32.6716 27.2252C32.6716 26.2673 31.9372 25.5146 31.0025 25.5146H24.8378C23.903 25.5146 23.1686 26.2673 23.1686 27.2252C23.1686 28.1603 23.903 28.9357 24.8378 28.9357" fill="url(#paint2_linear_171_5858)"/>
<path d="M24.8378 28.7357H31.0025V29.1357H24.8378V28.7357ZM31.0025 28.7357C31.8204 28.7357 32.4716 28.0562 32.4716 27.2252H32.8716C32.8716 28.2643 32.054 29.1357 31.0025 29.1357V28.7357ZM32.4716 27.2252C32.4716 26.3731 31.8222 25.7146 31.0025 25.7146V25.3146C32.0523 25.3146 32.8716 26.1615 32.8716 27.2252H32.4716ZM31.0025 25.7146H24.8378V25.3146H31.0025V25.7146ZM24.8378 25.7146C24.0181 25.7146 23.3686 26.3731 23.3686 27.2252H22.9686C22.9686 26.1615 23.788 25.3146 24.8378 25.3146V25.7146ZM23.3686 27.2252C23.3686 28.0562 24.0198 28.7357 24.8378 28.7357V29.1357C23.7863 29.1357 22.9686 28.2643 22.9686 27.2252H23.3686Z" fill="url(#paint3_linear_171_5858)" fill-opacity="0.5" mask="url(#path-5-inside-2_171_5858)"/>
</g>
<defs>
<filter id="filter0_f_171_5858" x="0.733398" y="3.68311" width="44.5454" height="34.7776" filterUnits="userSpaceOnUse" color-interpolation-filters="sRGB">
<feFlood flood-opacity="0" result="BackgroundImageFix"/>
<feBlend mode="normal" in="SourceGraphic" in2="BackgroundImageFix" result="shape"/>
<feGaussianBlur stdDeviation="5" result="effect1_foregroundBlur_171_5858"/>
</filter>
<filter id="filter1_b_171_5858" x="-11.5449" y="-16.6985" width="94.5449" height="94.6985" filterUnits="userSpaceOnUse" color-interpolation-filters="sRGB">
<feFlood flood-opacity="0" result="BackgroundImageFix"/>
<feGaussianBlur in="BackgroundImage" stdDeviation="12"/>
<feComposite in2="SourceAlpha" operator="in" result="effect1_backgroundBlur_171_5858"/>
<feBlend mode="normal" in="SourceGraphic" in2="effect1_backgroundBlur_171_5858" result="shape"/>
</filter>
<filter id="filter2_bd_171_5858" x="8.1687" y="10.5146" width="39.5029" height="33.4211" filterUnits="userSpaceOnUse" color-interpolation-filters="sRGB">
<feFlood flood-opacity="0" result="BackgroundImageFix"/>
<feGaussianBlur in="BackgroundImage" stdDeviation="7.5"/>
<feComposite in2="SourceAlpha" operator="in" result="effect1_backgroundBlur_171_5858"/>
<feColorMatrix in="SourceAlpha" type="matrix" values="0 0 0 0 0 0 0 0 0 0 0 0 0 0 0 0 0 0 127 0" result="hardAlpha"/>
<feOffset dx="5" dy="5"/>
<feGaussianBlur stdDeviation="5"/>
<feColorMatrix type="matrix" values="0 0 0 0 0.454902 0 0 0 0 0.870588 0 0 0 0 0.376471 0 0 0 0.5 0"/>
<feBlend mode="normal" in2="effect1_backgroundBlur_171_5858" result="effect2_dropShadow_171_5858"/>
<feBlend mode="normal" in="SourceGraphic" in2="effect2_dropShadow_171_5858" result="shape"/>
</filter>
<linearGradient id="paint0_linear_171_5858" x1="41.9651" y1="0" x2="21.3827" y2="31.3697" gradientUnits="userSpaceOnUse">
<stop stop-color="#9BF763"/>
<stop offset="1" stop-color="#26AB5B"/>
</linearGradient>
<linearGradient id="paint1_linear_171_5858" x1="50.9091" y1="13.5092" x2="22.3759" y2="48.7273" gradientUnits="userSpaceOnUse">
<stop stop-color="white" stop-opacity="0.25"/>
<stop offset="1" stop-color="white" stop-opacity="0"/>
</linearGradient>
<linearGradient id="paint2_linear_171_5858" x1="23.8424" y1="26.1324" x2="34.3529" y2="27.0843" gradientUnits="userSpaceOnUse">
<stop stop-color="white"/>
<stop offset="1" stop-color="white" stop-opacity="0.2"/>
</linearGradient>
<linearGradient id="paint3_linear_171_5858" x1="31.6479" y1="26.6623" x2="23.5802" y2="26.786" gradientUnits="userSpaceOnUse">
<stop stop-color="white"/>
<stop offset="1" stop-color="white" stop-opacity="0"/>
</linearGradient>
</defs>
</svg>
