<svg width="64" height="62" viewBox="0 0 64 62" fill="none" xmlns="http://www.w3.org/2000/svg">
<path d="M29.6388 3.97914L12.3237 8.54265C5.55345 10.327 2.27361 16.2024 4.16796 23.1563L8.53997 39.2054C10.429 46.1397 16.256 49.6148 23.0263 47.8305L40.3414 43.267C47.1117 41.4826 50.3716 35.6125 48.4826 28.6782L44.1105 12.6292C42.2162 5.67521 36.4091 2.19479 29.6388 3.97914" fill="url(#paint0_linear_171_5868)"/>
<g opacity="0.5" filter="url(#filter0_f_171_5868)">
<rect width="27.2743" height="28.2996" rx="13" transform="matrix(-0.257833 -0.96619 0.96566 -0.259809 14.7036 41.5796)" fill="#FF8A01"/>
</g>
<g filter="url(#filter1_b_171_5868)">
<path d="M48.6648 14.6511H28.2376C20.2505 14.6511 14.8787 20.1667 14.8787 28.3705V47.3041C14.8787 55.4847 20.2505 61.0003 28.2376 61.0003H48.6648C56.652 61.0003 62.0003 55.4847 62.0003 47.3041V28.3705C62.0003 20.1667 56.652 14.6511 48.6648 14.6511Z" fill="#FDFFA3" fill-opacity="0.35"/>
<path d="M48.6648 14.1511H28.2376C24.1253 14.1511 20.6509 15.5736 18.2048 18.0855C15.7597 20.5964 14.3787 24.1578 14.3787 28.3705V47.3041C14.3787 51.5056 15.76 55.0612 18.205 57.569C20.6511 60.0779 24.1253 61.5003 28.2376 61.5003H48.6648C52.7773 61.5003 56.2459 60.0778 58.6862 57.5685C61.1253 55.0605 62.5003 51.5049 62.5003 47.3041V28.3705C62.5003 24.1584 61.1255 20.5971 58.6864 18.086C56.246 15.5736 52.7773 14.1511 48.6648 14.1511Z" stroke="url(#paint1_linear_171_5868)" stroke-linecap="round" stroke-linejoin="round"/>
</g>
<g filter="url(#filter2_bd_171_5868)">
<mask id="path-5-inside-1_171_5868" fill="white">
<path fill-rule="evenodd" clip-rule="evenodd" d="M46.7708 46.663C46.8045 46.6649 46.8382 46.6658 46.8718 46.6658C47.4726 46.6658 48.0593 46.3622 48.3915 45.8176C48.891 44.9926 48.6153 43.9266 47.7789 43.4329L39.3913 38.513V27.804C39.3913 26.8446 38.5996 26.0659 37.6242 26.0659C36.6488 26.0659 35.8571 26.8446 35.8571 27.804V39.4956L35.8433 39.4995C35.8433 40.1113 36.1708 40.6791 36.7032 40.9943L45.9532 46.4217C46.2115 46.5708 46.491 46.6495 46.7708 46.663Z"/>
</mask>
<path fill-rule="evenodd" clip-rule="evenodd" d="M46.7708 46.663C46.8045 46.6649 46.8382 46.6658 46.8718 46.6658C47.4726 46.6658 48.0593 46.3622 48.3915 45.8176C48.891 44.9926 48.6153 43.9266 47.7789 43.4329L39.3913 38.513V27.804C39.3913 26.8446 38.5996 26.0659 37.6242 26.0659C36.6488 26.0659 35.8571 26.8446 35.8571 27.804V39.4956L35.8433 39.4995C35.8433 40.1113 36.1708 40.6791 36.7032 40.9943L45.9532 46.4217C46.2115 46.5708 46.491 46.6495 46.7708 46.663Z" fill="url(#paint2_linear_171_5868)"/>
<path d="M46.7708 46.663L46.7931 46.2636L46.79 46.2634L46.7708 46.663ZM48.3915 45.8176L48.733 46.0259L48.7337 46.0248L48.3915 45.8176ZM47.7789 43.4329L47.9822 43.0885L47.9813 43.0879L47.7789 43.4329ZM39.3913 38.513H38.9913V38.7421L39.1889 38.858L39.3913 38.513ZM35.8571 39.4956L35.9648 39.8809L36.2571 39.7992V39.4956H35.8571ZM35.8433 39.4995L35.7356 39.1142L35.4433 39.1959V39.4995H35.8433ZM36.7032 40.9943L36.4995 41.3385L36.5008 41.3393L36.7032 40.9943ZM45.9532 46.4217L45.7508 46.7668L45.7532 46.7682L45.9532 46.4217ZM46.8718 46.2658C46.8456 46.2658 46.8194 46.2651 46.7931 46.2636L46.7485 47.0624C46.7896 47.0647 46.8307 47.0658 46.8718 47.0658V46.2658ZM48.05 45.6093C47.7939 46.0291 47.34 46.2658 46.8718 46.2658V47.0658C47.6052 47.0658 48.3246 46.6953 48.733 46.0259L48.05 45.6093ZM47.5756 43.7774C48.2237 44.1599 48.4314 44.9794 48.0493 45.6104L48.7337 46.0248C49.3506 45.0058 49.0069 43.6932 47.9822 43.0885L47.5756 43.7774ZM39.1889 38.858L47.5765 43.778L47.9813 43.0879L39.5936 38.168L39.1889 38.858ZM38.9913 27.804V38.513H39.7913V27.804H38.9913ZM37.6242 26.4659C38.385 26.4659 38.9913 27.0717 38.9913 27.804H39.7913C39.7913 26.6175 38.8143 25.6659 37.6242 25.6659V26.4659ZM36.2571 27.804C36.2571 27.0717 36.8634 26.4659 37.6242 26.4659V25.6659C36.4341 25.6659 35.4571 26.6175 35.4571 27.804H36.2571ZM36.2571 39.4956V27.804H35.4571V39.4956H36.2571ZM35.7495 39.1104L35.7356 39.1142L35.9509 39.8847L35.9648 39.8809L35.7495 39.1104ZM35.4433 39.4995C35.4433 40.2552 35.8476 40.9526 36.4995 41.3385L36.907 40.65C36.4939 40.4055 36.2433 39.9674 36.2433 39.4995H35.4433ZM36.5008 41.3393L45.7508 46.7667L46.1556 46.0767L36.9057 40.6493L36.5008 41.3393ZM45.7532 46.7682C46.0676 46.9496 46.4093 47.046 46.7515 47.0625L46.79 46.2634C46.5727 46.253 46.3553 46.192 46.1531 46.0753L45.7532 46.7682Z" fill="url(#paint3_linear_171_5868)" mask="url(#path-5-inside-1_171_5868)"/>
</g>
<defs>
<filter id="filter0_f_171_5868" x="0.580322" y="0.802979" width="48.5422" height="47.8484" filterUnits="userSpaceOnUse" color-interpolation-filters="sRGB">
<feFlood flood-opacity="0" result="BackgroundImageFix"/>
<feBlend mode="normal" in="SourceGraphic" in2="BackgroundImageFix" result="shape"/>
<feGaussianBlur stdDeviation="5" result="effect1_foregroundBlur_171_5868"/>
</filter>
<filter id="filter1_b_171_5868" x="-10.1213" y="-10.3489" width="97.1216" height="96.3494" filterUnits="userSpaceOnUse" color-interpolation-filters="sRGB">
<feFlood flood-opacity="0" result="BackgroundImageFix"/>
<feGaussianBlur in="BackgroundImage" stdDeviation="12"/>
<feComposite in2="SourceAlpha" operator="in" result="effect1_backgroundBlur_171_5868"/>
<feBlend mode="normal" in="SourceGraphic" in2="effect1_backgroundBlur_171_5868" result="shape"/>
</filter>
<filter id="filter2_bd_171_5868" x="20.8433" y="11.0659" width="42.7974" height="50.6001" filterUnits="userSpaceOnUse" color-interpolation-filters="sRGB">
<feFlood flood-opacity="0" result="BackgroundImageFix"/>
<feGaussianBlur in="BackgroundImage" stdDeviation="7.5"/>
<feComposite in2="SourceAlpha" operator="in" result="effect1_backgroundBlur_171_5868"/>
<feColorMatrix in="SourceAlpha" type="matrix" values="0 0 0 0 0 0 0 0 0 0 0 0 0 0 0 0 0 0 127 0" result="hardAlpha"/>
<feOffset dx="5" dy="5"/>
<feGaussianBlur stdDeviation="5"/>
<feColorMatrix type="matrix" values="0 0 0 0 0.9875 0 0 0 0 0.886117 0 0 0 0 0.353854 0 0 0 1 0"/>
<feBlend mode="normal" in2="effect1_backgroundBlur_171_5868" result="effect2_dropShadow_171_5868"/>
<feBlend mode="normal" in="SourceGraphic" in2="effect2_dropShadow_171_5868" result="shape"/>
</filter>
<linearGradient id="paint0_linear_171_5868" x1="20.9713" y1="6.26353" x2="31.3485" y2="45.6371" gradientUnits="userSpaceOnUse">
<stop stop-color="#F0FF94"/>
<stop offset="1" stop-color="#FFC266"/>
</linearGradient>
<linearGradient id="paint1_linear_171_5868" x1="22.3797" y1="20.0509" x2="51.8389" y2="57.1449" gradientUnits="userSpaceOnUse">
<stop stop-color="white" stop-opacity="0.25"/>
<stop offset="1" stop-color="white" stop-opacity="0"/>
</linearGradient>
<linearGradient id="paint2_linear_171_5868" x1="47.7204" y1="29.7858" x2="33.4715" y2="30.0741" gradientUnits="userSpaceOnUse">
<stop stop-color="white"/>
<stop offset="1" stop-color="white" stop-opacity="0.2"/>
</linearGradient>
<linearGradient id="paint3_linear_171_5868" x1="37.8804" y1="28.4658" x2="50.8738" y2="38.4631" gradientUnits="userSpaceOnUse">
<stop stop-color="white" stop-opacity="0.25"/>
<stop offset="1" stop-color="white" stop-opacity="0"/>
</linearGradient>
</defs>
</svg>
