<svg width="61" height="61" viewBox="0 0 61 61" fill="none" xmlns="http://www.w3.org/2000/svg">
<path d="M49.2503 21.4409L47.4703 19.6613C46.7781 18.9692 46.3825 18.03 46.3825 17.0437V14.4954C46.3825 10.3924 43.045 7.05805 38.9411 7.05805H36.3948C35.4059 7.05805 34.4664 6.6601 33.7742 5.96802L31.9695 4.16615C29.0523 1.27425 24.3303 1.27425 21.4378 4.1884L19.6578 5.96802C18.9656 6.6601 18.0262 7.05805 17.0373 7.05805H14.4909C10.387 7.05805 7.04954 10.3924 7.04954 14.4954V17.0166C7.04954 18.03 6.65399 18.9692 5.96177 19.6613L4.15705 21.4681C1.26456 24.3822 1.28928 29.1057 4.18177 31.9951L5.96177 33.75C6.65399 34.4668 7.04954 35.4061 7.04954 36.3972V38.9406C7.04954 43.0436 10.387 46.3829 14.4909 46.3829H17.0373C18.0262 46.3829 18.9656 46.7759 19.6578 47.468L21.4626 49.2748C22.9212 50.7084 24.8248 51.4227 26.7284 51.4227C28.632 51.4227 30.5356 50.7084 31.9942 49.2476L33.7742 47.468C34.4664 46.7759 35.4059 46.3829 36.3948 46.3829H38.9411C43.045 46.3829 46.3825 43.0436 46.3825 38.9406V36.3972C46.3825 35.4061 46.7781 34.4668 47.4703 33.7747L49.2256 32.0198C49.2503 31.9951 49.275 31.9729 49.2997 31.9457C50.6842 30.5393 51.4506 28.6583 51.4258 26.6809C51.4258 24.7036 50.6594 22.8251 49.2503 21.4409V21.4409Z" fill="url(#paint0_linear_171_5861)"/>
<g opacity="0.5" filter="url(#filter0_f_171_5861)">
<path d="M41.6346 23.2219L40.4561 22.0436C39.9978 21.5854 39.7359 20.9636 39.7359 20.3106V18.6234C39.7359 15.9068 37.5262 13.6992 34.8091 13.6992H33.1232C32.4684 13.6992 31.8464 13.4357 31.3881 12.9775L30.1932 11.7845C28.2618 9.86983 25.1355 9.86983 23.2204 11.7993L22.0419 12.9775C21.5836 13.4357 20.9616 13.6992 20.3068 13.6992H18.6209C15.9038 13.6992 13.6941 15.9068 13.6941 18.6234V20.2926C13.6941 20.9636 13.4322 21.5854 12.9739 22.0436L11.779 23.2399C9.8639 25.1693 9.88027 28.2967 11.7954 30.2097L12.9739 31.3716C13.4322 31.8462 13.6941 32.4681 13.6941 33.1243V34.8082C13.6941 37.5248 15.9038 39.7357 18.6209 39.7357H20.3068C20.9616 39.7357 21.5836 39.9959 22.0419 40.4541L23.2367 41.6504C24.2025 42.5995 25.4628 43.0725 26.7232 43.0725C27.9835 43.0725 29.2439 42.5995 30.2096 41.6324L31.3881 40.4541C31.8464 39.9959 32.4684 39.7357 33.1232 39.7357H34.8091C37.5262 39.7357 39.7359 37.5248 39.7359 34.8082V33.1243C39.7359 32.4681 39.9978 31.8462 40.4561 31.388L41.6183 30.2261C41.6346 30.2097 41.651 30.195 41.6674 30.177C42.584 29.2458 43.0914 28.0005 43.075 26.6913C43.075 25.3821 42.5676 24.1383 41.6346 23.2219V23.2219Z" fill="#E46800"/>
</g>
<g filter="url(#filter1_b_171_5861)">
<mask id="path-3-outside-1_171_5861" maskUnits="userSpaceOnUse" x="9.57349" y="9.57739" width="52" height="52" fill="black">
<rect fill="white" x="9.57349" y="9.57739" width="52" height="52"/>
<path d="M57.8238 30.0183L56.0438 28.2387C55.3516 27.5466 54.956 26.6073 54.956 25.6211V23.0728C54.956 18.9698 51.6185 15.6354 47.5146 15.6354H44.9682C43.9794 15.6354 43.0399 15.2375 42.3477 14.5454L40.543 12.7435C37.6258 9.85165 32.9038 9.85165 30.0113 12.7658L28.2313 14.5454C27.5391 15.2375 26.5997 15.6354 25.6108 15.6354H23.0644C18.9605 15.6354 15.623 18.9698 15.623 23.0728V25.5939C15.623 26.6073 15.2275 27.5466 14.5353 28.2387L12.7305 30.0455C9.83804 32.9596 9.86276 37.6831 12.7553 40.5725L14.5353 42.3274C15.2275 43.0442 15.623 43.9834 15.623 44.9746V47.518C15.623 51.621 18.9605 54.9603 23.0644 54.9603H25.6108C26.5997 54.9603 27.5391 55.3533 28.2313 56.0454L30.0361 57.8522C31.4947 59.2858 33.3983 60.0001 35.3019 60.0001C37.2055 60.0001 39.1091 59.2858 40.5677 57.825L42.3477 56.0454C43.0399 55.3533 43.9794 54.9603 44.9682 54.9603H47.5146C51.6185 54.9603 54.956 51.621 54.956 47.518V44.9746C54.956 43.9834 55.3516 43.0442 56.0438 42.3521L57.799 40.5972C57.8238 40.5725 57.8485 40.5502 57.8732 40.5231C59.2577 39.1167 60.024 37.2357 59.9993 35.2583C59.9993 33.281 59.2329 31.4025 57.8238 30.0183V30.0183Z"/>
</mask>
<path d="M57.8238 30.0183L56.0438 28.2387C55.3516 27.5466 54.956 26.6073 54.956 25.6211V23.0728C54.956 18.9698 51.6185 15.6354 47.5146 15.6354H44.9682C43.9794 15.6354 43.0399 15.2375 42.3477 14.5454L40.543 12.7435C37.6258 9.85165 32.9038 9.85165 30.0113 12.7658L28.2313 14.5454C27.5391 15.2375 26.5997 15.6354 25.6108 15.6354H23.0644C18.9605 15.6354 15.623 18.9698 15.623 23.0728V25.5939C15.623 26.6073 15.2275 27.5466 14.5353 28.2387L12.7305 30.0455C9.83804 32.9596 9.86276 37.6831 12.7553 40.5725L14.5353 42.3274C15.2275 43.0442 15.623 43.9834 15.623 44.9746V47.518C15.623 51.621 18.9605 54.9603 23.0644 54.9603H25.6108C26.5997 54.9603 27.5391 55.3533 28.2313 56.0454L30.0361 57.8522C31.4947 59.2858 33.3983 60.0001 35.3019 60.0001C37.2055 60.0001 39.1091 59.2858 40.5677 57.825L42.3477 56.0454C43.0399 55.3533 43.9794 54.9603 44.9682 54.9603H47.5146C51.6185 54.9603 54.956 51.621 54.956 47.518V44.9746C54.956 43.9834 55.3516 43.0442 56.0438 42.3521L57.799 40.5972C57.8238 40.5725 57.8485 40.5502 57.8732 40.5231C59.2577 39.1167 60.024 37.2357 59.9993 35.2583C59.9993 33.281 59.2329 31.4025 57.8238 30.0183V30.0183Z" fill="#FFCBB9" fill-opacity="0.35"/>
<path d="M56.0438 28.2387L56.7508 27.5315L56.7508 27.5315L56.0438 28.2387ZM42.3477 14.5454L43.0547 13.8382L43.0542 13.8378L42.3477 14.5454ZM40.543 12.7435L41.2495 12.0359L41.247 12.0334L40.543 12.7435ZM30.0113 12.7658L30.7184 13.473L30.7211 13.4703L30.0113 12.7658ZM28.2313 14.5454L28.9384 15.2526L28.9384 15.2526L28.2313 14.5454ZM14.5353 28.2387L13.8282 27.5315L13.8277 27.532L14.5353 28.2387ZM12.7305 30.0455L12.023 29.3388L12.0208 29.341L12.7305 30.0455ZM12.7553 40.5725L12.0485 41.28L12.0532 41.2846L12.7553 40.5725ZM14.5353 42.3274L15.2546 41.6327C15.2489 41.6269 15.2431 41.621 15.2373 41.6153L14.5353 42.3274ZM28.2313 56.0454L28.9389 55.3387L28.9384 55.3382L28.2313 56.0454ZM30.0361 57.8522L29.3285 58.5589L29.3351 58.5654L30.0361 57.8522ZM40.5677 57.825L39.8607 57.1178L39.8601 57.1184L40.5677 57.825ZM42.3477 56.0454L43.0547 56.7526L43.0547 56.7526L42.3477 56.0454ZM56.0438 42.3521L56.7508 43.0593L56.7508 43.0593L56.0438 42.3521ZM57.799 40.5972L57.092 39.89L57.092 39.89L57.799 40.5972ZM57.8732 40.5231L57.1606 39.8215C57.1513 39.8309 57.1422 39.8405 57.1333 39.8503L57.8732 40.5231ZM59.9993 35.2583H58.9992L58.9994 35.2708L59.9993 35.2583ZM58.5308 29.3111L56.7508 27.5315L55.3367 28.9459L57.1167 30.7255L58.5308 29.3111ZM56.7508 27.5315C56.2438 27.0245 55.956 26.3387 55.956 25.6211H53.956C53.956 26.876 54.4594 28.0686 55.3367 28.9459L56.7508 27.5315ZM55.956 25.6211V23.0728H53.956V25.6211H55.956ZM55.956 23.0728C55.956 18.4169 52.1702 14.6354 47.5146 14.6354V16.6354C51.0669 16.6354 53.956 19.5227 53.956 23.0728H55.956ZM47.5146 14.6354H44.9682V16.6354H47.5146V14.6354ZM44.9682 14.6354C44.2492 14.6354 43.5628 14.3462 43.0547 13.8382L41.6407 15.2526C42.5171 16.1288 43.7095 16.6354 44.9682 16.6354V14.6354ZM43.0542 13.8378L41.2495 12.0359L39.8364 13.4512L41.6411 15.2531L43.0542 13.8378ZM41.247 12.0334C37.9412 8.75625 32.5864 8.75192 29.3016 12.0613L30.7211 13.4703C33.2212 10.9514 37.3103 10.947 39.839 13.4537L41.247 12.0334ZM29.3043 12.0586L27.5243 13.8382L28.9384 15.2526L30.7184 13.473L29.3043 12.0586ZM27.5243 13.8382C27.0163 14.3462 26.3298 14.6354 25.6108 14.6354V16.6354C26.8695 16.6354 28.062 16.1288 28.9384 15.2526L27.5243 13.8382ZM25.6108 14.6354H23.0644V16.6354H25.6108V14.6354ZM23.0644 14.6354C18.4089 14.6354 14.623 18.4169 14.623 23.0728H16.623C16.623 19.5227 19.5122 16.6354 23.0644 16.6354V14.6354ZM14.623 23.0728V25.5939H16.623V23.0728H14.623ZM14.623 25.5939C14.623 26.3426 14.3325 27.0273 13.8282 27.5315L15.2423 28.9459C16.1224 28.0659 16.623 26.8721 16.623 25.5939H14.623ZM13.8277 27.532L12.023 29.3388L13.4381 30.7522L15.2428 28.9454L13.8277 27.532ZM12.0208 29.341C8.73864 32.6477 8.76767 38.0026 12.0485 41.28L13.462 39.865C10.9579 37.3635 10.9374 33.2715 13.4403 30.75L12.0208 29.341ZM12.0532 41.2846L13.8332 43.0395L15.2373 41.6153L13.4573 39.8604L12.0532 41.2846ZM13.8159 43.0221C14.3364 43.561 14.623 44.2543 14.623 44.9746H16.623C16.623 43.7126 16.1186 42.5274 15.2546 41.6327L13.8159 43.0221ZM14.623 44.9746V47.518H16.623V44.9746H14.623ZM14.623 47.518C14.623 52.1731 18.408 55.9603 23.0644 55.9603V53.9603C19.513 53.9603 16.623 51.069 16.623 47.518H14.623ZM23.0644 55.9603H25.6108V53.9603H23.0644V55.9603ZM25.6108 55.9603C26.3332 55.9603 27.0187 56.2471 27.5243 56.7526L28.9384 55.3382C28.0595 54.4595 26.8661 53.9603 25.6108 53.9603V55.9603ZM27.5238 56.7521L29.3285 58.5589L30.7436 57.1455L28.9389 55.3387L27.5238 56.7521ZM29.3351 58.5654C30.9894 60.1913 33.1485 61.0001 35.3019 61.0001V59.0001C33.6481 59.0001 31.9999 58.3803 30.737 57.139L29.3351 58.5654ZM35.3019 61.0001C37.4564 61.0001 39.6191 60.1903 41.2753 58.5316L39.8601 57.1184C38.5991 58.3813 36.9546 59.0001 35.3019 59.0001V61.0001ZM41.2747 58.5322L43.0547 56.7526L41.6407 55.3382L39.8607 57.1178L41.2747 58.5322ZM43.0547 56.7526C43.5603 56.2471 44.2458 55.9603 44.9682 55.9603V53.9603C43.7129 53.9603 42.5195 54.4595 41.6407 55.3382L43.0547 56.7526ZM44.9682 55.9603H47.5146V53.9603H44.9682V55.9603ZM47.5146 55.9603C52.171 55.9603 55.956 52.1731 55.956 47.518H53.956C53.956 51.069 51.066 53.9603 47.5146 53.9603V55.9603ZM55.956 47.518V44.9746H53.956V47.518H55.956ZM55.956 44.9746C55.956 44.2514 56.2443 43.5657 56.7508 43.0593L55.3367 41.6449C54.4589 42.5227 53.956 43.7155 53.956 44.9746H55.956ZM56.7508 43.0593L58.5061 41.3044L57.092 39.89L55.3367 41.6449L56.7508 43.0593ZM58.5061 41.3044C58.5066 41.3038 58.5084 41.3021 58.5133 41.2974C58.5162 41.2946 58.5266 41.2845 58.5341 41.2772C58.552 41.2597 58.5809 41.2313 58.6131 41.1958L57.1333 39.8503C57.1409 39.8421 57.145 39.8383 57.1381 39.845C57.1365 39.8466 57.1345 39.8485 57.1317 39.8512C57.1295 39.8534 57.1253 39.8574 57.1219 39.8607C57.1145 39.8679 57.1038 39.8782 57.092 39.89L58.5061 41.3044ZM58.5859 41.2246C60.1553 39.6302 61.0273 37.493 60.9992 35.2458L58.9994 35.2708C59.0208 36.9783 58.36 38.6031 57.1606 39.8215L58.5859 41.2246ZM60.9993 35.2583C60.9993 33.0203 60.1305 30.8824 58.5245 29.3049L57.123 30.7317C58.3354 31.9225 58.9993 33.5416 58.9993 35.2583H60.9993Z" fill="url(#paint1_linear_171_5861)" mask="url(#path-3-outside-1_171_5861)"/>
</g>
<g filter="url(#filter2_bd_171_5861)">
<mask id="path-5-inside-2_171_5861" fill="white">
<path fill-rule="evenodd" clip-rule="evenodd" d="M30.4564 43.1675C30.0608 43.5876 29.5169 43.8101 28.9236 43.8101C28.355 43.8101 27.8111 43.5876 27.4155 43.1675C26.575 42.3271 26.575 40.9429 27.4155 40.1025L40.1227 27.398C40.9633 26.5601 42.323 26.5601 43.1636 27.398C44.0041 28.2383 44.0041 29.625 43.1636 30.4654L30.4564 43.1675ZM41.6555 43.8102C40.4441 43.8102 39.4799 42.8462 39.4799 41.6351C39.4799 40.4511 40.4441 39.4847 41.6555 39.4847C42.8421 39.4847 43.8063 40.4511 43.8063 41.6351C43.8063 42.8462 42.8421 43.8102 41.6555 43.8102ZM31.0991 28.9306C31.0991 27.7441 30.1349 26.7802 28.9483 26.7802C27.7616 26.7802 26.7727 27.7441 26.7727 28.9306C26.7727 30.1442 27.7616 31.1057 28.9483 31.1057C30.1349 31.1057 31.0991 30.1442 31.0991 28.9306Z"/>
</mask>
<path fill-rule="evenodd" clip-rule="evenodd" d="M30.4564 43.1675C30.0608 43.5876 29.5169 43.8101 28.9236 43.8101C28.355 43.8101 27.8111 43.5876 27.4155 43.1675C26.575 42.3271 26.575 40.9429 27.4155 40.1025L40.1227 27.398C40.9633 26.5601 42.323 26.5601 43.1636 27.398C44.0041 28.2383 44.0041 29.625 43.1636 30.4654L30.4564 43.1675ZM41.6555 43.8102C40.4441 43.8102 39.4799 42.8462 39.4799 41.6351C39.4799 40.4511 40.4441 39.4847 41.6555 39.4847C42.8421 39.4847 43.8063 40.4511 43.8063 41.6351C43.8063 42.8462 42.8421 43.8102 41.6555 43.8102ZM31.0991 28.9306C31.0991 27.7441 30.1349 26.7802 28.9483 26.7802C27.7616 26.7802 26.7727 27.7441 26.7727 28.9306C26.7727 30.1442 27.7616 31.1057 28.9483 31.1057C30.1349 31.1057 31.0991 30.1442 31.0991 28.9306Z" fill="url(#paint2_linear_171_5861)"/>
<path d="M30.4564 43.1675L30.1734 42.8844L30.1651 42.8933L30.4564 43.1675ZM27.4155 43.1675L27.7069 42.8932L27.6983 42.8846L27.4155 43.1675ZM27.4155 40.1025L27.1327 39.8197L27.1327 39.8197L27.4155 40.1025ZM40.1227 27.398L39.8403 27.1147L39.8399 27.1151L40.1227 27.398ZM43.1636 27.398L43.4464 27.1151L43.446 27.1147L43.1636 27.398ZM43.1636 30.4654L43.4463 30.7483L43.4464 30.7482L43.1636 30.4654ZM28.9236 44.2101C29.6195 44.2101 30.2713 43.9476 30.7476 43.4416L30.1651 42.8933C29.8503 43.2277 29.4144 43.4101 28.9236 43.4101V44.2101ZM27.1243 43.4416C27.5989 43.9458 28.2499 44.2101 28.9236 44.2101V43.4101C28.4601 43.4101 28.0233 43.2295 27.7068 42.8933L27.1243 43.4416ZM27.1327 39.8197C26.1359 40.8163 26.1359 42.4537 27.1327 43.4503L27.6983 42.8846C27.014 42.2004 27.014 41.0696 27.6983 40.3854L27.1327 39.8197ZM39.8399 27.1151L27.1327 39.8197L27.6983 40.3854L40.4055 27.6808L39.8399 27.1151ZM43.446 27.1147C42.4493 26.1212 40.837 26.1212 39.8403 27.1147L40.4051 27.6813C41.0896 26.999 42.1967 26.999 42.8812 27.6813L43.446 27.1147ZM43.4464 30.7482C44.4432 29.7516 44.4432 28.1117 43.4464 27.1151L42.8807 27.6808C43.565 28.365 43.565 29.4983 42.8807 30.1825L43.4464 30.7482ZM30.7391 43.4504L43.4463 30.7483L42.8808 30.1825L30.1736 42.8846L30.7391 43.4504ZM39.0799 41.6351C39.0799 43.0672 40.2232 44.2102 41.6555 44.2102V43.4102C40.6649 43.4102 39.8799 42.6252 39.8799 41.6351H39.0799ZM41.6555 39.0847C40.2259 39.0847 39.0799 40.2275 39.0799 41.6351H39.8799C39.8799 40.6748 40.6622 39.8847 41.6555 39.8847V39.0847ZM44.2063 41.6351C44.2063 40.2304 43.0633 39.0847 41.6555 39.0847V39.8847C42.621 39.8847 43.4063 40.6718 43.4063 41.6351H44.2063ZM41.6555 44.2102C43.0659 44.2102 44.2063 43.0642 44.2063 41.6351H43.4063C43.4063 42.6282 42.6183 43.4102 41.6555 43.4102V44.2102ZM28.9483 27.1802C29.9141 27.1802 30.6991 27.9651 30.6991 28.9306H31.4991C31.4991 27.5231 30.3558 26.3802 28.9483 26.3802V27.1802ZM27.1727 28.9306C27.1727 27.971 27.9765 27.1802 28.9483 27.1802V26.3802C27.5467 26.3802 26.3727 27.5172 26.3727 28.9306H27.1727ZM28.9483 30.7057C27.9792 30.7057 27.1727 29.9199 27.1727 28.9306H26.3727C26.3727 30.3684 27.544 31.5057 28.9483 31.5057V30.7057ZM30.6991 28.9306C30.6991 29.9259 29.9114 30.7057 28.9483 30.7057V31.5057C30.3584 31.5057 31.4991 30.3625 31.4991 28.9306H30.6991Z" fill="url(#paint3_linear_171_5861)" mask="url(#path-5-inside-2_171_5861)"/>
</g>
<defs>
<filter id="filter0_f_171_5861" x="0.35083" y="0.350342" width="52.7246" height="52.7222" filterUnits="userSpaceOnUse" color-interpolation-filters="sRGB">
<feFlood flood-opacity="0" result="BackgroundImageFix"/>
<feBlend mode="normal" in="SourceGraphic" in2="BackgroundImageFix" result="shape"/>
<feGaussianBlur stdDeviation="5" result="effect1_foregroundBlur_171_5861"/>
</filter>
<filter id="filter1_b_171_5861" x="-14.4265" y="-14.4226" width="99.4265" height="99.4226" filterUnits="userSpaceOnUse" color-interpolation-filters="sRGB">
<feFlood flood-opacity="0" result="BackgroundImageFix"/>
<feGaussianBlur in="BackgroundImage" stdDeviation="12"/>
<feComposite in2="SourceAlpha" operator="in" result="effect1_backgroundBlur_171_5861"/>
<feBlend mode="normal" in="SourceGraphic" in2="effect1_backgroundBlur_171_5861" result="shape"/>
</filter>
<filter id="filter2_bd_171_5861" x="11.7727" y="11.7695" width="47.0337" height="47.0405" filterUnits="userSpaceOnUse" color-interpolation-filters="sRGB">
<feFlood flood-opacity="0" result="BackgroundImageFix"/>
<feGaussianBlur in="BackgroundImage" stdDeviation="7.5"/>
<feComposite in2="SourceAlpha" operator="in" result="effect1_backgroundBlur_171_5861"/>
<feColorMatrix in="SourceAlpha" type="matrix" values="0 0 0 0 0 0 0 0 0 0 0 0 0 0 0 0 0 0 127 0" result="hardAlpha"/>
<feOffset dx="5" dy="5"/>
<feGaussianBlur stdDeviation="5"/>
<feColorMatrix type="matrix" values="0 0 0 0 1 0 0 0 0 0.580392 0 0 0 0 0.247059 0 0 0 0.5 0"/>
<feBlend mode="normal" in2="effect1_backgroundBlur_171_5861" result="effect2_dropShadow_171_5861"/>
<feBlend mode="normal" in="SourceGraphic" in2="effect2_dropShadow_171_5861" result="shape"/>
</filter>
<linearGradient id="paint0_linear_171_5861" x1="26.7132" y1="2" x2="26.7132" y2="51.4227" gradientUnits="userSpaceOnUse">
<stop stop-color="#FFB37F"/>
<stop offset="1" stop-color="#FF7B0D"/>
</linearGradient>
<linearGradient id="paint1_linear_171_5861" x1="10.4293" y1="10.2413" x2="49.9337" y2="55.4095" gradientUnits="userSpaceOnUse">
<stop stop-color="white" stop-opacity="0.4"/>
<stop offset="1" stop-color="white" stop-opacity="0"/>
</linearGradient>
<linearGradient id="paint2_linear_171_5861" x1="42.5986" y1="29.8467" x2="23.6248" y2="30.4651" gradientUnits="userSpaceOnUse">
<stop stop-color="white"/>
<stop offset="1" stop-color="white" stop-opacity="0.2"/>
</linearGradient>
<linearGradient id="paint3_linear_171_5861" x1="29.4842" y1="28.7548" x2="40.3552" y2="42.2133" gradientUnits="userSpaceOnUse">
<stop stop-color="white" stop-opacity="0.25"/>
<stop offset="1" stop-color="white" stop-opacity="0"/>
</linearGradient>
</defs>
</svg>
