<svg width="59" height="62" viewBox="0 0 59 62" fill="none" xmlns="http://www.w3.org/2000/svg">
<path d="M26.8368 2.63935L9.78584 7.23921C3.60103 8.9077 0.970343 13.5251 2.63301 19.7725L8.26427 40.9316C9.9542 47.2814 14.5038 49.874 20.6886 48.2055L37.7395 43.6056C44.024 41.9102 46.5748 37.4022 44.8849 31.0524L39.2536 9.89331C37.591 3.64596 33.1213 0.94397 26.8368 2.63935Z" fill="url(#paint0_linear_171_5849)"/>
<g filter="url(#filter0_f_171_5849)">
<rect width="27.3737" height="23.0447" rx="11.5223" transform="matrix(-0.257187 -0.966362 0.965485 -0.26046 15.1687 40.8242)" fill="#FF8B37" fill-opacity="0.5"/>
</g>
<g filter="url(#filter1_b_171_5849)">
<path d="M42.8711 13.5886H25.2187C18.8157 13.5886 15.0876 17.3632 15.0876 23.831V45.7365C15.0876 52.3102 18.8157 56 25.2187 56H42.8711C49.3773 56 53.0001 52.3102 53.0001 45.7365V23.831C53.0001 17.3632 49.3773 13.5886 42.8711 13.5886Z" fill="#FFCC90" fill-opacity="0.35"/>
<path d="M42.8711 13.0886H25.2187C21.919 13.0886 19.2451 14.0632 17.3965 15.9329C15.5487 17.8017 14.5876 20.5021 14.5876 23.831V45.7365C14.5876 49.1164 15.5476 51.8235 17.3973 53.6858C19.2474 55.5484 21.9221 56.5 25.2187 56.5H42.8711C46.2175 56.5 48.8935 55.5494 50.7316 53.6844C52.5685 51.8205 53.5001 49.1127 53.5001 45.7365V23.831C53.5001 20.5059 52.5675 17.8048 50.7324 15.9342C48.8957 14.0622 46.2205 13.0886 42.8711 13.0886Z" stroke="url(#paint1_linear_171_5849)" stroke-linecap="round" stroke-linejoin="round"/>
</g>
<g filter="url(#filter2_bd_171_5849)">
<mask id="path-5-inside-1_171_5849" fill="white">
<path fill-rule="evenodd" clip-rule="evenodd" d="M25.7874 23.4502V23.4714C24.8796 23.4714 24.1445 24.2136 24.1445 25.1254C24.1445 26.0373 24.8796 26.7795 25.7874 26.7795H32.0829C32.9907 26.7795 33.7279 26.0373 33.7279 25.1021C33.7279 24.1924 32.9907 23.4502 32.0829 23.4502H25.7874ZM42.3003 36.3648H25.7874C24.8796 36.3648 24.1445 35.6226 24.1445 34.7108C24.1445 33.799 24.8796 33.0546 25.7874 33.0546H42.3003C43.206 33.0546 43.9432 33.799 43.9432 34.7108C43.9432 35.6226 43.206 36.3648 42.3003 36.3648ZM42.3005 46.0557H25.7875C25.1556 46.1405 24.5448 45.8224 24.2078 45.2923C23.8708 44.7409 23.8708 44.0412 24.2078 43.511C24.5448 42.9597 25.1556 42.6628 25.7875 42.7264H42.3005C43.1409 42.8112 43.7749 43.5322 43.7749 44.4016C43.7749 45.2478 43.1409 45.9709 42.3005 46.0557Z"/>
</mask>
<path fill-rule="evenodd" clip-rule="evenodd" d="M25.7874 23.4502V23.4714C24.8796 23.4714 24.1445 24.2136 24.1445 25.1254C24.1445 26.0373 24.8796 26.7795 25.7874 26.7795H32.0829C32.9907 26.7795 33.7279 26.0373 33.7279 25.1021C33.7279 24.1924 32.9907 23.4502 32.0829 23.4502H25.7874ZM42.3003 36.3648H25.7874C24.8796 36.3648 24.1445 35.6226 24.1445 34.7108C24.1445 33.799 24.8796 33.0546 25.7874 33.0546H42.3003C43.206 33.0546 43.9432 33.799 43.9432 34.7108C43.9432 35.6226 43.206 36.3648 42.3003 36.3648ZM42.3005 46.0557H25.7875C25.1556 46.1405 24.5448 45.8224 24.2078 45.2923C23.8708 44.7409 23.8708 44.0412 24.2078 43.511C24.5448 42.9597 25.1556 42.6628 25.7875 42.7264H42.3005C43.1409 42.8112 43.7749 43.5322 43.7749 44.4016C43.7749 45.2478 43.1409 45.9709 42.3005 46.0557Z" fill="url(#paint2_linear_171_5849)"/>
<path d="M25.7874 23.4714V23.8714H26.1874V23.4714H25.7874ZM25.7874 23.4502V23.0502H25.3874V23.4502H25.7874ZM25.7875 46.0557V45.6557H25.7608L25.7343 45.6593L25.7875 46.0557ZM42.3005 46.0557V46.4557H42.3206L42.3407 46.4537L42.3005 46.0557ZM24.2078 45.2923L23.8665 45.5009L23.8703 45.5069L24.2078 45.2923ZM24.2078 43.511L24.5454 43.7256L24.5491 43.7196L24.2078 43.511ZM25.7875 42.7264L25.7474 43.1244L25.7674 43.1264H25.7875V42.7264ZM42.3005 42.7264L42.3407 42.3284L42.3206 42.3264H42.3005V42.7264ZM26.1874 23.4714V23.4502H25.3874V23.4714H26.1874ZM24.5445 25.1254C24.5445 24.4316 25.1034 23.8714 25.7874 23.8714V23.0714C24.6558 23.0714 23.7445 23.9956 23.7445 25.1254H24.5445ZM25.7874 26.3795C25.1034 26.3795 24.5445 25.8193 24.5445 25.1254H23.7445C23.7445 26.2553 24.6558 27.1795 25.7874 27.1795V26.3795ZM32.0829 26.3795H25.7874V27.1795H32.0829V26.3795ZM33.3279 25.1021C33.3279 25.8223 32.7639 26.3795 32.0829 26.3795V27.1795C33.2175 27.1795 34.1279 26.2523 34.1279 25.1021H33.3279ZM32.0829 23.8502C32.7679 23.8502 33.3279 24.4114 33.3279 25.1021H34.1279C34.1279 23.9734 33.2135 23.0502 32.0829 23.0502V23.8502ZM25.7874 23.8502H32.0829V23.0502H25.7874V23.8502ZM25.7874 36.7648H42.3003V35.9648H25.7874V36.7648ZM23.7445 34.7108C23.7445 35.8407 24.6558 36.7648 25.7874 36.7648V35.9648C25.1034 35.9648 24.5445 35.4046 24.5445 34.7108H23.7445ZM25.7874 32.6546C24.6551 32.6546 23.7445 33.5816 23.7445 34.7108H24.5445C24.5445 34.0163 25.104 33.4546 25.7874 33.4546V32.6546ZM42.3003 32.6546H25.7874V33.4546H42.3003V32.6546ZM44.3432 34.7108C44.3432 33.5813 43.4301 32.6546 42.3003 32.6546V33.4546C42.9819 33.4546 43.5432 34.0166 43.5432 34.7108H44.3432ZM42.3003 36.7648C43.4295 36.7648 44.3432 35.841 44.3432 34.7108H43.5432C43.5432 35.4043 42.9825 35.9648 42.3003 35.9648V36.7648ZM25.7875 46.4557H42.3005V45.6557H25.7875V46.4557ZM23.8703 45.5069C24.283 46.1561 25.0401 46.5596 25.8407 46.4521L25.7343 45.6593C25.2712 45.7214 24.8067 45.4888 24.5454 45.0777L23.8703 45.5069ZM23.8703 43.2964C23.4484 43.96 23.4528 44.8241 23.8665 45.5009L24.5491 45.0837C24.2888 44.6578 24.2932 44.1223 24.5454 43.7256L23.8703 43.2964ZM25.8276 42.3284C25.0442 42.2495 24.2845 42.6187 23.8665 43.3024L24.5491 43.7196C24.8052 43.3007 25.2671 43.076 25.7474 43.1244L25.8276 42.3284ZM42.3005 42.3264H25.7875V43.1264H42.3005V42.3264ZM44.1749 44.4016C44.1749 43.3367 43.395 42.4348 42.3407 42.3284L42.2603 43.1244C42.8868 43.1876 43.3749 43.7278 43.3749 44.4016H44.1749ZM42.3407 46.4537C43.3922 46.3475 44.1749 45.4462 44.1749 44.4016H43.3749C43.3749 45.0493 42.8896 45.5942 42.2603 45.6577L42.3407 46.4537Z" fill="url(#paint3_linear_171_5849)" mask="url(#path-5-inside-1_171_5849)"/>
</g>
<defs>
<filter id="filter0_f_171_5849" x="0.701172" y="0.969971" width="44.1443" height="47.2534" filterUnits="userSpaceOnUse" color-interpolation-filters="sRGB">
<feFlood flood-opacity="0" result="BackgroundImageFix"/>
<feBlend mode="normal" in="SourceGraphic" in2="BackgroundImageFix" result="shape"/>
<feGaussianBlur stdDeviation="5" result="effect1_foregroundBlur_171_5849"/>
</filter>
<filter id="filter1_b_171_5849" x="-9.91235" y="-11.4114" width="87.9124" height="92.4114" filterUnits="userSpaceOnUse" color-interpolation-filters="sRGB">
<feFlood flood-opacity="0" result="BackgroundImageFix"/>
<feGaussianBlur in="BackgroundImage" stdDeviation="12"/>
<feComposite in2="SourceAlpha" operator="in" result="effect1_backgroundBlur_171_5849"/>
<feBlend mode="normal" in="SourceGraphic" in2="effect1_backgroundBlur_171_5849" result="shape"/>
</filter>
<filter id="filter2_bd_171_5849" x="8.95508" y="8.4502" width="49.988" height="52.6191" filterUnits="userSpaceOnUse" color-interpolation-filters="sRGB">
<feFlood flood-opacity="0" result="BackgroundImageFix"/>
<feGaussianBlur in="BackgroundImage" stdDeviation="7.5"/>
<feComposite in2="SourceAlpha" operator="in" result="effect1_backgroundBlur_171_5849"/>
<feColorMatrix in="SourceAlpha" type="matrix" values="0 0 0 0 0 0 0 0 0 0 0 0 0 0 0 0 0 0 127 0" result="hardAlpha"/>
<feOffset dx="5" dy="5"/>
<feGaussianBlur stdDeviation="5"/>
<feColorMatrix type="matrix" values="0 0 0 0 0.577356 0 0 0 0 0.359375 0 0 0 0 0.9375 0 0 0 0.5 0"/>
<feBlend mode="normal" in2="effect1_backgroundBlur_171_5849" result="effect2_dropShadow_171_5849"/>
<feBlend mode="normal" in="SourceGraphic" in2="effect2_dropShadow_171_5849" result="shape"/>
</filter>
<linearGradient id="paint0_linear_171_5849" x1="18.3103" y1="4.93955" x2="29.3517" y2="45.8684" gradientUnits="userSpaceOnUse">
<stop stop-color="#FFA794"/>
<stop offset="1" stop-color="#FF9466"/>
</linearGradient>
<linearGradient id="paint1_linear_171_5849" x1="21.1227" y1="18.5296" x2="48.6553" y2="49.0121" gradientUnits="userSpaceOnUse">
<stop stop-color="white" stop-opacity="0.25"/>
<stop offset="1" stop-color="white" stop-opacity="0"/>
</linearGradient>
<linearGradient id="paint2_linear_171_5849" x1="42.5261" y1="27.5348" x2="20.256" y2="28.1764" gradientUnits="userSpaceOnUse">
<stop stop-color="white"/>
<stop offset="1" stop-color="white" stop-opacity="0.2"/>
</linearGradient>
<linearGradient id="paint3_linear_171_5849" x1="27.1369" y1="26.0854" x2="41.8369" y2="42.174" gradientUnits="userSpaceOnUse">
<stop stop-color="white" stop-opacity="0.25"/>
<stop offset="1" stop-color="white" stop-opacity="0"/>
</linearGradient>
</defs>
</svg>
