<svg width="60" height="59" viewBox="0 0 60 59" fill="none" xmlns="http://www.w3.org/2000/svg">
<path d="M48.9758 8.60729L33.2487 4.4093C27.5441 2.88658 23.3277 5.32746 21.7941 11.029L16.6 30.3395C15.0413 36.1345 17.4879 40.2738 23.1925 41.7965L38.9196 45.9945C44.7161 47.5417 48.8186 45.1506 50.3773 39.3556L55.5714 20.0451C57.105 14.3435 54.7724 10.1545 48.9758 8.60729Z" fill="url(#paint0_linear_171_5852)"/>
<g opacity="0.5" filter="url(#filter0_f_171_5852)">
<path d="M44.8989 13.8543L34.1447 10.9837C30.2439 9.94243 27.3607 11.6115 26.312 15.5102L22.7603 28.7148C21.6944 32.6774 23.3674 35.5079 27.2682 36.5491L38.0224 39.4197C41.9861 40.4777 44.7914 38.8427 45.8573 34.88L49.409 21.6755C50.4577 17.7767 48.8626 14.9123 44.8989 13.8543Z" fill="#F86652"/>
</g>
<g filter="url(#filter1_b_171_5852)">
<mask id="path-3-outside-1_171_5852" maskUnits="userSpaceOnUse" x="5.96046e-08" y="7.46704" width="47" height="47" fill="black">
<rect fill="white" x="5.96046e-08" y="7.46704" width="47" height="47"/>
<path fill-rule="evenodd" clip-rule="evenodd" d="M1.0001 30.6197V39.7047C0.999666 40.6908 1.07942 41.6753 1.23859 42.6486C1.48892 44.3688 2.08362 46.0215 2.98754 47.5092C3.3993 48.2272 3.90008 48.891 4.47812 49.485C7.13491 51.9055 10.6573 53.1653 14.2563 52.9822H32.4215C36.0147 53.1667 39.5315 51.9063 42.1798 49.485C42.7648 48.8921 43.2723 48.2283 43.6902 47.5092C44.5995 46.0204 45.2072 44.3693 45.4789 42.6486C45.6216 41.6737 45.6947 40.6899 45.6976 39.7047V28.0077C45.7655 25.7682 45.4358 23.5342 44.7237 21.4085C44.3618 20.3742 43.8091 19.416 43.094 18.583C42.8692 18.32 42.6233 18.0755 42.3587 17.852C40.0612 16.0519 37.1664 15.1772 34.2499 15.4019H27.5492C25.9628 15.3711 24.4665 14.6509 23.458 13.427L21.2917 10.4435C20.2706 9.17204 18.7147 8.44242 17.0784 8.46768H12.4278C4.08053 8.46768 1 13.348 1 21.6465V30.6167C0.999992 30.6177 1.00002 30.6187 1.0001 30.6197Z"/>
</mask>
<path fill-rule="evenodd" clip-rule="evenodd" d="M1.0001 30.6197V39.7047C0.999666 40.6908 1.07942 41.6753 1.23859 42.6486C1.48892 44.3688 2.08362 46.0215 2.98754 47.5092C3.3993 48.2272 3.90008 48.891 4.47812 49.485C7.13491 51.9055 10.6573 53.1653 14.2563 52.9822H32.4215C36.0147 53.1667 39.5315 51.9063 42.1798 49.485C42.7648 48.8921 43.2723 48.2283 43.6902 47.5092C44.5995 46.0204 45.2072 44.3693 45.4789 42.6486C45.6216 41.6737 45.6947 40.6899 45.6976 39.7047V28.0077C45.7655 25.7682 45.4358 23.5342 44.7237 21.4085C44.3618 20.3742 43.8091 19.416 43.094 18.583C42.8692 18.32 42.6233 18.0755 42.3587 17.852C40.0612 16.0519 37.1664 15.1772 34.2499 15.4019H27.5492C25.9628 15.3711 24.4665 14.6509 23.458 13.427L21.2917 10.4435C20.2706 9.17204 18.7147 8.44242 17.0784 8.46768H12.4278C4.08053 8.46768 1 13.348 1 21.6465V30.6167C0.999992 30.6177 1.00002 30.6187 1.0001 30.6197Z" fill="#FFAC95" fill-opacity="0.4"/>
<path d="M1.0001 30.6197H2.0001C2.0001 30.5936 1.99909 30.5676 1.99706 30.5417L1.0001 30.6197ZM1.0001 39.7047L2.0001 39.7051V39.7047H1.0001ZM1.23859 42.6486L2.22817 42.5046C2.22733 42.4988 2.22643 42.493 2.22548 42.4873L1.23859 42.6486ZM2.98754 47.5092L3.85501 47.0117C3.85081 47.0044 3.84653 46.9971 3.84215 46.9899L2.98754 47.5092ZM4.47812 49.485L3.76143 50.1824C3.77541 50.1968 3.78982 50.2107 3.80464 50.2242L4.47812 49.485ZM14.2563 52.9822V51.9822C14.2394 51.9822 14.2224 51.9827 14.2055 51.9835L14.2563 52.9822ZM32.4215 52.9822L32.4727 51.9836C32.4557 51.9827 32.4386 51.9822 32.4215 51.9822V52.9822ZM42.1798 49.485L42.8546 50.223C42.8672 50.2115 42.8796 50.1996 42.8916 50.1874L42.1798 49.485ZM43.6902 47.5092L42.8368 46.9879C42.833 46.9941 42.8293 47.0004 42.8257 47.0067L43.6902 47.5092ZM45.4789 42.6486L46.4668 42.8047L46.4684 42.7935L45.4789 42.6486ZM45.6976 39.7047L46.6976 39.7076V39.7047H45.6976ZM45.6976 28.0077L44.698 27.9774C44.6977 27.9875 44.6976 27.9976 44.6976 28.0077L45.6976 28.0077ZM44.7237 21.4085L45.672 21.0908L45.6676 21.0782L44.7237 21.4085ZM43.094 18.583L42.3338 19.2327L42.3353 19.2344L43.094 18.583ZM42.3587 17.852L43.004 17.088C42.9946 17.0801 42.9851 17.0724 42.9754 17.0648L42.3587 17.852ZM34.2499 15.4019V16.4019C34.2756 16.4019 34.3012 16.4009 34.3267 16.399L34.2499 15.4019ZM27.5492 15.4019L27.5298 16.4017C27.5363 16.4019 27.5427 16.4019 27.5492 16.4019V15.4019ZM23.458 13.427L22.6488 14.0146C22.6608 14.0311 22.6733 14.0472 22.6863 14.0629L23.458 13.427ZM21.2917 10.4435L22.1009 9.85596C22.0914 9.84285 22.0816 9.82997 22.0714 9.81734L21.2917 10.4435ZM17.0784 8.46768V9.46768C17.0835 9.46768 17.0887 9.46764 17.0938 9.46756L17.0784 8.46768ZM1 30.6167L2 30.6273V30.6167H1ZM0.00010067 30.6197V39.7047H2.0001V30.6197H0.00010067ZM0.000100767 39.7042C-0.000358094 40.7445 0.0837845 41.7832 0.251702 42.81L2.22548 42.4873C2.07506 41.5674 1.99969 40.637 2.0001 39.7051L0.000100767 39.7042ZM0.249017 42.7926C0.518707 44.6458 1.15939 46.4262 2.13293 48.0284L3.84215 46.9899C3.00785 45.6168 2.45913 44.0917 2.22817 42.5046L0.249017 42.7926ZM2.12007 48.0067C2.57358 48.7975 3.12503 49.5284 3.76143 50.1824L5.1948 48.7876C4.67512 48.2536 4.22503 47.6569 3.85501 47.0117L2.12007 48.0067ZM3.80464 50.2242C6.65919 52.8249 10.4426 54.1776 14.3071 53.9809L14.2055 51.9835C10.8721 52.1531 7.61063 50.9862 5.15159 48.7458L3.80464 50.2242ZM14.2563 53.9822H32.4215V51.9822H14.2563V53.9822ZM32.3702 53.9809C36.2297 54.1791 40.0082 52.8254 42.8546 50.223L41.505 48.747C39.0547 50.9873 35.7996 52.1543 32.4727 51.9836L32.3702 53.9809ZM42.8916 50.1874C43.5357 49.5347 44.0945 48.8037 44.5548 48.0117L42.8257 47.0067C42.4501 47.6529 41.994 48.2496 41.468 48.7826L42.8916 50.1874ZM44.5436 48.0304C45.5211 46.4301 46.1745 44.6548 46.4667 42.8046L44.4912 42.4926C44.2399 44.0837 43.678 45.6108 42.8368 46.9879L44.5436 48.0304ZM46.4684 42.7935C46.618 41.7715 46.6945 40.7403 46.6976 39.7076L44.6976 39.7017C44.6948 40.6395 44.6253 41.5758 44.4895 42.5038L46.4684 42.7935ZM46.6976 39.7047V28.0077H44.6976V39.7047H46.6976ZM46.6971 28.0381C46.7686 25.6803 46.4215 23.3286 45.6719 21.0908L43.7755 21.7261C44.4501 23.7399 44.7624 25.856 44.698 27.9774L46.6971 28.0381ZM45.6676 21.0782C45.2644 19.926 44.6489 18.859 43.8528 17.9316L42.3353 19.2344C42.9693 19.973 43.4591 20.8223 43.7798 21.7387L45.6676 21.0782ZM43.8542 17.9333C43.5942 17.6291 43.3098 17.3464 43.004 17.088L41.7134 18.6159C41.9367 18.8045 42.1442 19.0108 42.3338 19.2327L43.8542 17.9333ZM42.9754 17.0648C40.4806 15.1101 37.3383 14.161 34.1731 14.4049L34.3267 16.399C36.9945 16.1934 39.6417 16.9936 41.7419 18.6391L42.9754 17.0648ZM34.2499 14.4019H27.5492V16.4019H34.2499V14.4019ZM27.5686 14.4021C26.2725 14.377 25.0516 13.7885 24.2298 12.7911L22.6863 14.0629C23.8814 15.5134 25.6531 16.3653 27.5298 16.4017L27.5686 14.4021ZM24.2672 12.8395L22.1009 9.85596L20.4825 11.0311L22.6488 14.0146L24.2672 12.8395ZM22.0714 9.81734C20.8563 8.3043 19.0065 7.4378 17.0629 7.46779L17.0938 9.46756C18.423 9.44705 19.6849 10.0398 20.512 11.0697L22.0714 9.81734ZM17.0784 7.46768H12.4278V9.46768H17.0784V7.46768ZM12.4278 7.46768C8.05403 7.46768 4.86369 8.75516 2.80409 11.3188C0.781255 13.8367 1.86837e-06 17.4054 1.86837e-06 21.6465H2C2 17.589 2.75901 14.5683 4.36325 12.5714C5.93072 10.6203 8.45427 9.46768 12.4278 9.46768V7.46768ZM1.86837e-06 21.6465V30.6167H2V21.6465H1.86837e-06ZM5.73007e-05 30.6062C-0.000266167 30.6369 0.00078384 30.6674 0.0031422 30.6976L1.99706 30.5417C1.99927 30.5699 2.00025 30.5985 1.99995 30.6273L5.73007e-05 30.6062Z" fill="url(#paint1_linear_171_5852)" mask="url(#path-3-outside-1_171_5852)"/>
</g>
<g filter="url(#filter2_bd_171_5852)">
<path d="M34.652 43.1951H12.1542C11.1334 43.1951 10.3059 42.3724 10.3059 41.3575C10.3059 40.3427 11.1334 39.52 12.1542 39.52H34.8309C35.3814 39.5262 35.8968 39.7898 36.2221 40.2313C36.5049 40.5599 36.6475 40.9853 36.6196 41.4168C36.6041 41.9078 36.3915 42.3722 36.0293 42.7063C35.6671 43.0404 35.1854 43.2164 34.6918 43.1951H34.652Z" fill="url(#paint2_linear_171_5852)"/>
<path d="M36.0611 40.3499L36.0655 40.356L36.0705 40.3618C36.3192 40.6508 36.4445 41.0247 36.42 41.4039L36.4199 41.4039L36.4197 41.4105C36.4059 41.8477 36.2166 42.2614 35.8937 42.5593C35.5708 42.8572 35.141 43.0143 34.7004 42.9953L34.7004 42.9951H34.6918H34.652H12.1542C11.2428 42.9951 10.5059 42.2608 10.5059 41.3575C10.5059 40.4543 11.2428 39.72 12.1542 39.72H34.8297C35.3173 39.7259 35.7734 39.9594 36.0611 40.3499Z" stroke="url(#paint3_linear_171_5852)" stroke-width="0.4"/>
</g>
<defs>
<filter id="filter0_f_171_5852" x="12.4453" y="0.680176" width="47.2778" height="49.0542" filterUnits="userSpaceOnUse" color-interpolation-filters="sRGB">
<feFlood flood-opacity="0" result="BackgroundImageFix"/>
<feBlend mode="normal" in="SourceGraphic" in2="BackgroundImageFix" result="shape"/>
<feGaussianBlur stdDeviation="5" result="effect1_foregroundBlur_171_5852"/>
</filter>
<filter id="filter1_b_171_5852" x="-15" y="-7.53296" width="76.7063" height="76.533" filterUnits="userSpaceOnUse" color-interpolation-filters="sRGB">
<feFlood flood-opacity="0" result="BackgroundImageFix"/>
<feGaussianBlur in="BackgroundImage" stdDeviation="7.5"/>
<feComposite in2="SourceAlpha" operator="in" result="effect1_backgroundBlur_171_5852"/>
<feBlend mode="normal" in="SourceGraphic" in2="effect1_backgroundBlur_171_5852" result="shape"/>
</filter>
<filter id="filter2_bd_171_5852" x="-4.69409" y="24.52" width="56.3171" height="33.6768" filterUnits="userSpaceOnUse" color-interpolation-filters="sRGB">
<feFlood flood-opacity="0" result="BackgroundImageFix"/>
<feGaussianBlur in="BackgroundImage" stdDeviation="7.5"/>
<feComposite in2="SourceAlpha" operator="in" result="effect1_backgroundBlur_171_5852"/>
<feColorMatrix in="SourceAlpha" type="matrix" values="0 0 0 0 0 0 0 0 0 0 0 0 0 0 0 0 0 0 127 0" result="hardAlpha"/>
<feOffset dx="5" dy="5"/>
<feGaussianBlur stdDeviation="5"/>
<feColorMatrix type="matrix" values="0 0 0 0 0.976471 0 0 0 0 0.435294 0 0 0 0 0.352941 0 0 0 0.5 0"/>
<feBlend mode="normal" in2="effect1_backgroundBlur_171_5852" result="effect2_dropShadow_171_5852"/>
<feBlend mode="normal" in="SourceGraphic" in2="effect2_dropShadow_171_5852" result="shape"/>
</filter>
<linearGradient id="paint0_linear_171_5852" x1="25.1066" y1="13.1849" x2="40.0146" y2="66.7178" gradientUnits="userSpaceOnUse">
<stop stop-color="#FFA78F"/>
<stop offset="1" stop-color="#F23E2C"/>
</linearGradient>
<linearGradient id="paint1_linear_171_5852" x1="8.11651" y1="13.6552" x2="36.5003" y2="48.9461" gradientUnits="userSpaceOnUse">
<stop stop-color="white" stop-opacity="0.25"/>
<stop offset="1" stop-color="white" stop-opacity="0"/>
</linearGradient>
<linearGradient id="paint2_linear_171_5852" x1="34.7572" y1="40.184" x2="6.92692" y2="46.6787" gradientUnits="userSpaceOnUse">
<stop stop-color="white"/>
<stop offset="1" stop-color="white" stop-opacity="0.2"/>
</linearGradient>
<linearGradient id="paint3_linear_171_5852" x1="14.4952" y1="39.9484" x2="15.0297" y2="44.6866" gradientUnits="userSpaceOnUse">
<stop stop-color="white" stop-opacity="0.25"/>
<stop offset="1" stop-color="white" stop-opacity="0"/>
</linearGradient>
</defs>
</svg>
