<svg width="63" height="59" viewBox="0 0 63 59" fill="none" xmlns="http://www.w3.org/2000/svg">
<path fill-rule="evenodd" clip-rule="evenodd" d="M42.3886 13.9485L42.3886 11.9388C42.3886 5.90038 37.5253 1 31.5608 1L13.3002 1C7.61102 1 3 5.66812 3 11.4278L3 34.5016L3.00001 36.5113C3.00001 42.5497 7.86337 47.45 13.8279 47.45H32.0884C37.7776 47.45 42.3886 42.7819 42.3886 37.0222V13.9485Z" fill="url(#paint0_linear_171_5853)"/>
<g opacity="0.5" filter="url(#filter0_f_171_5853)">
<rect x="10.4463" y="34.3965" width="24.1139" height="20.6203" rx="5" transform="rotate(-90 10.4463 34.3965)" fill="#8237FF" fill-opacity="0.5"/>
</g>
<g filter="url(#filter1_b_171_5853)">
<path d="M21.9574 11.551L38.9917 11.551L50.9999 24.4985L50.9999 47.5723C50.9999 53.332 46.3889 58.0001 40.6997 58.0001L22.4392 58.0001C16.4747 58.0001 11.6113 53.0997 11.6113 47.0613L11.6113 22.0253C11.6113 16.2656 16.2453 11.551 21.9574 11.551Z" fill="#BA90FF" fill-opacity="0.35"/>
<path d="M39.3583 11.211C39.2636 11.109 39.1308 11.051 38.9917 11.051L21.9574 11.051C15.9626 11.051 11.1113 15.996 11.1113 22.0253L11.1113 47.0613C11.1113 53.3714 16.1941 58.5001 22.4392 58.5001L40.6997 58.5001C46.6709 58.5001 51.4999 53.6023 51.4999 47.5723L51.4999 24.4985C51.4999 24.3724 51.4523 24.251 51.3665 24.1585L39.3583 11.211Z" stroke="url(#paint1_linear_171_5853)" stroke-linecap="round" stroke-linejoin="round"/>
</g>
<mask id="path-5-inside-1_171_5853" fill="white">
<path fill-rule="evenodd" clip-rule="evenodd" d="M31.1318 29.7722H23.378C22.4374 29.7722 21.6575 30.5619 21.6575 31.5141C21.6575 32.4663 22.4374 33.2327 23.378 33.2327H31.1318C32.0724 33.2327 32.8524 32.4663 32.8524 31.5141C32.8524 30.5619 32.0724 29.7722 31.1318 29.7722ZM23.378 44.8443H35.8576C36.7982 44.8443 37.5781 44.0546 37.5781 43.1024C37.5781 42.1502 36.7982 41.3838 35.8576 41.3838H23.378C22.4375 41.3838 21.6575 42.1502 21.6575 43.1024C21.6575 44.0546 22.4375 44.8443 23.378 44.8443Z"/>
</mask>
<path fill-rule="evenodd" clip-rule="evenodd" d="M31.1318 29.7722H23.378C22.4374 29.7722 21.6575 30.5619 21.6575 31.5141C21.6575 32.4663 22.4374 33.2327 23.378 33.2327H31.1318C32.0724 33.2327 32.8524 32.4663 32.8524 31.5141C32.8524 30.5619 32.0724 29.7722 31.1318 29.7722ZM23.378 44.8443H35.8576C36.7982 44.8443 37.5781 44.0546 37.5781 43.1024C37.5781 42.1502 36.7982 41.3838 35.8576 41.3838H23.378C22.4375 41.3838 21.6575 42.1502 21.6575 43.1024C21.6575 44.0546 22.4375 44.8443 23.378 44.8443Z" fill="url(#paint2_linear_171_5853)"/>
<path d="M23.378 30.1722H31.1318V29.3722H23.378V30.1722ZM22.0575 31.5141C22.0575 30.7781 22.663 30.1722 23.378 30.1722V29.3722C22.2119 29.3722 21.2575 30.3456 21.2575 31.5141H22.0575ZM23.378 32.8327C22.656 32.8327 22.0575 32.243 22.0575 31.5141H21.2575C21.2575 32.6895 22.2189 33.6327 23.378 33.6327V32.8327ZM31.1318 32.8327H23.378V33.6327H31.1318V32.8327ZM32.4524 31.5141C32.4524 32.243 31.8538 32.8327 31.1318 32.8327V33.6327C32.291 33.6327 33.2524 32.6895 33.2524 31.5141H32.4524ZM31.1318 30.1722C31.8469 30.1722 32.4524 30.7781 32.4524 31.5141H33.2524C33.2524 30.3456 32.2979 29.3722 31.1318 29.3722V30.1722ZM35.8576 44.4443H23.378V45.2443H35.8576V44.4443ZM37.1781 43.1024C37.1781 43.8384 36.5726 44.4443 35.8576 44.4443V45.2443C37.0237 45.2443 37.9781 44.2709 37.9781 43.1024H37.1781ZM35.8576 41.7838C36.5796 41.7838 37.1781 42.3735 37.1781 43.1024H37.9781C37.9781 41.927 37.0167 40.9838 35.8576 40.9838V41.7838ZM23.378 41.7838H35.8576V40.9838H23.378V41.7838ZM22.0575 43.1024C22.0575 42.3735 22.6561 41.7838 23.378 41.7838V40.9838C22.2189 40.9838 21.2575 41.927 21.2575 43.1024H22.0575ZM23.378 44.4443C22.663 44.4443 22.0575 43.8384 22.0575 43.1024H21.2575C21.2575 44.2709 22.212 45.2443 23.378 45.2443V44.4443Z" fill="url(#paint3_linear_171_5853)" mask="url(#path-5-inside-1_171_5853)"/>
<g filter="url(#filter2_bd_171_5853)">
<mask id="path-7-inside-2_171_5853" fill="white">
<path d="M41.1154 26.353C42.7143 26.3692 44.9372 26.3762 46.8229 26.3692C47.7887 26.3669 48.2796 25.1987 47.6098 24.495C45.1873 21.945 40.8538 17.3813 38.374 14.7709C37.6881 14.0486 36.4883 14.5456 36.4883 15.5466V21.6686C36.4883 24.2372 38.5782 26.353 41.1154 26.353"/>
</mask>
<path d="M41.1154 26.353C42.7143 26.3692 44.9372 26.3762 46.8229 26.3692C47.7887 26.3669 48.2796 25.1987 47.6098 24.495C45.1873 21.945 40.8538 17.3813 38.374 14.7709C37.6881 14.0486 36.4883 14.5456 36.4883 15.5466V21.6686C36.4883 24.2372 38.5782 26.353 41.1154 26.353" fill="url(#paint4_linear_171_5853)"/>
<path d="M46.8229 26.3692L46.822 25.9692L46.8214 25.9692L46.8229 26.3692ZM47.6098 24.495L47.3198 24.7705L47.3201 24.7708L47.6098 24.495ZM38.374 14.7709L38.0839 15.0464L38.084 15.0464L38.374 14.7709ZM41.1113 26.753C42.7122 26.7692 44.937 26.7762 46.8244 26.7692L46.8214 25.9692C44.9374 25.9762 42.7164 25.9692 41.1194 25.953L41.1113 26.753ZM46.8239 26.7692C48.1492 26.766 48.8057 25.1712 47.8995 24.2192L47.3201 24.7708C47.7536 25.2262 47.4282 25.9678 46.822 25.9692L46.8239 26.7692ZM47.8998 24.2195C45.4744 21.6664 41.1468 17.109 38.664 14.4954L38.084 15.0464C40.5609 17.6537 44.9001 22.2235 47.3198 24.7705L47.8998 24.2195ZM38.664 14.4955C37.718 13.4992 36.0883 14.2007 36.0883 15.5466H36.8883C36.8883 14.8905 37.6582 14.598 38.0839 15.0464L38.664 14.4955ZM36.0883 15.5466V21.6686H36.8883V15.5466H36.0883ZM36.0883 21.6686C36.0883 24.4535 38.3526 26.753 41.1154 26.753V25.953C38.8037 25.953 36.8883 24.021 36.8883 21.6686H36.0883Z" fill="url(#paint5_linear_171_5853)" mask="url(#path-7-inside-2_171_5853)"/>
</g>
<defs>
<filter id="filter0_f_171_5853" x="0.446289" y="0.282471" width="40.6204" height="44.114" filterUnits="userSpaceOnUse" color-interpolation-filters="sRGB">
<feFlood flood-opacity="0" result="BackgroundImageFix"/>
<feBlend mode="normal" in="SourceGraphic" in2="BackgroundImageFix" result="shape"/>
<feGaussianBlur stdDeviation="5" result="effect1_foregroundBlur_171_5853"/>
</filter>
<filter id="filter1_b_171_5853" x="-13.3887" y="-13.449" width="89.3887" height="96.449" filterUnits="userSpaceOnUse" color-interpolation-filters="sRGB">
<feFlood flood-opacity="0" result="BackgroundImageFix"/>
<feGaussianBlur in="BackgroundImage" stdDeviation="12"/>
<feComposite in2="SourceAlpha" operator="in" result="effect1_backgroundBlur_171_5853"/>
<feBlend mode="normal" in="SourceGraphic" in2="effect1_backgroundBlur_171_5853" result="shape"/>
</filter>
<filter id="filter2_bd_171_5853" x="21.4883" y="-0.571533" width="41.4304" height="41.9434" filterUnits="userSpaceOnUse" color-interpolation-filters="sRGB">
<feFlood flood-opacity="0" result="BackgroundImageFix"/>
<feGaussianBlur in="BackgroundImage" stdDeviation="7.5"/>
<feComposite in2="SourceAlpha" operator="in" result="effect1_backgroundBlur_171_5853"/>
<feColorMatrix in="SourceAlpha" type="matrix" values="0 0 0 0 0 0 0 0 0 0 0 0 0 0 0 0 0 0 127 0" result="hardAlpha"/>
<feOffset dx="5" dy="5"/>
<feGaussianBlur stdDeviation="5"/>
<feColorMatrix type="matrix" values="0 0 0 0 0.577356 0 0 0 0 0.359375 0 0 0 0 0.9375 0 0 0 0.25 0"/>
<feBlend mode="normal" in2="effect1_backgroundBlur_171_5853" result="effect2_dropShadow_171_5853"/>
<feBlend mode="normal" in="SourceGraphic" in2="effect2_dropShadow_171_5853" result="shape"/>
</filter>
<linearGradient id="paint0_linear_171_5853" x1="31.2714" y1="1" x2="31.2714" y2="47.4499" gradientUnits="userSpaceOnUse">
<stop stop-color="#BC94FF"/>
<stop offset="1" stop-color="#9F66FF"/>
</linearGradient>
<linearGradient id="paint1_linear_171_5853" x1="17.8814" y1="16.9624" x2="48.155" y2="48.7578" gradientUnits="userSpaceOnUse">
<stop stop-color="white" stop-opacity="0.25"/>
<stop offset="1" stop-color="white" stop-opacity="0"/>
</linearGradient>
<linearGradient id="paint2_linear_171_5853" x1="36.4494" y1="32.4939" x2="18.7174" y2="33.1046" gradientUnits="userSpaceOnUse">
<stop stop-color="white"/>
<stop offset="1" stop-color="white" stop-opacity="0.2"/>
</linearGradient>
<linearGradient id="paint3_linear_171_5853" x1="24.1918" y1="31.5281" x2="33.6823" y2="43.9442" gradientUnits="userSpaceOnUse">
<stop stop-color="white" stop-opacity="0.25"/>
<stop offset="1" stop-color="white" stop-opacity="0"/>
</linearGradient>
<linearGradient id="paint4_linear_171_5853" x1="47.1083" y1="16.5852" x2="34.3747" y2="16.9826" gradientUnits="userSpaceOnUse">
<stop stop-color="white"/>
<stop offset="1" stop-color="white" stop-opacity="0.2"/>
</linearGradient>
<linearGradient id="paint5_linear_171_5853" x1="38.3078" y1="15.8199" x2="45.9902" y2="24.926" gradientUnits="userSpaceOnUse">
<stop stop-color="white" stop-opacity="0.25"/>
<stop offset="1" stop-color="white" stop-opacity="0"/>
</linearGradient>
</defs>
</svg>
