<svg width="64" height="67" viewBox="0 0 64 67" fill="none" xmlns="http://www.w3.org/2000/svg">
<path d="M29.8749 2.92225L10.8937 8.01495C4.00869 9.86221 1.08019 14.9744 2.93109 21.8911L9.19985 45.3172C11.0811 52.3473 16.1457 55.2177 23.0307 53.3705L42.0119 48.2778C49.0079 46.4007 51.8474 41.4097 49.9662 34.3796L43.6974 10.9534C41.8465 4.03671 36.8709 1.04522 29.8749 2.92225Z" fill="url(#paint0_linear_171_5866)"/>
<g filter="url(#filter0_f_171_5866)">
<rect width="30.3176" height="25.6441" rx="12.822" transform="matrix(-0.258502 -0.966011 0.965841 -0.259137 16.886 45.1982)" fill="#8237FF" fill-opacity="0.5"/>
</g>
<g filter="url(#filter1_b_171_5866)">
<path d="M47.7245 15.0444H28.0736C20.9458 15.0444 16.7957 19.2235 16.7957 26.3842V50.6367C16.7957 57.9148 20.9458 61.9999 28.0736 61.9999H47.7245C54.9672 61.9999 59.0001 57.9148 59.0001 50.6367V26.3842C59.0001 19.2235 54.9672 15.0444 47.7245 15.0444Z" fill="#BA90FF" fill-opacity="0.35"/>
<path d="M47.7245 14.5444H28.0736C24.4123 14.5444 21.452 15.6196 19.4071 17.6765C17.3626 19.733 16.2957 22.7081 16.2957 26.3842V50.6367C16.2957 54.3696 17.3616 57.3519 19.4079 59.4009C21.4542 61.4499 24.4153 62.4999 28.0736 62.4999H47.7245C51.4383 62.4999 54.4007 61.4509 56.4335 59.3995C58.4656 57.3489 59.5001 54.3658 59.5001 50.6367V26.3842C59.5001 22.7119 58.4645 19.7361 56.4343 17.6779C54.4029 15.6186 51.4414 14.5444 47.7245 14.5444Z" stroke="url(#paint1_linear_171_5866)" stroke-linecap="round" stroke-linejoin="round"/>
</g>
<g filter="url(#filter2_bd_171_5866)">
<mask id="path-5-inside-1_171_5866" fill="white">
<path fill-rule="evenodd" clip-rule="evenodd" d="M28.7064 25.9624V25.9859C27.6959 25.9859 26.8776 26.8076 26.8776 27.8171C26.8776 28.8267 27.6959 29.6484 28.7064 29.6484H35.7147C36.7253 29.6484 37.5459 28.8267 37.5459 27.7913C37.5459 26.7841 36.7253 25.9624 35.7147 25.9624H28.7064ZM47.0888 40.2608H28.7064C27.6959 40.2608 26.8776 39.439 26.8776 38.4295C26.8776 37.42 27.6959 36.5959 28.7064 36.5959H47.0888C48.097 36.5959 48.9177 37.42 48.9177 38.4295C48.9177 39.439 48.097 40.2608 47.0888 40.2608ZM47.089 50.9899H28.7066C28.0032 51.0838 27.3233 50.7317 26.9481 50.1447C26.573 49.5343 26.573 48.7595 26.9481 48.1726C27.3233 47.5622 28.0032 47.2335 28.7066 47.3039H47.089C48.0245 47.3978 48.7303 48.1961 48.7303 49.1587C48.7303 50.0954 48.0245 50.896 47.089 50.9899Z"/>
</mask>
<path fill-rule="evenodd" clip-rule="evenodd" d="M28.7064 25.9624V25.9859C27.6959 25.9859 26.8776 26.8076 26.8776 27.8171C26.8776 28.8267 27.6959 29.6484 28.7064 29.6484H35.7147C36.7253 29.6484 37.5459 28.8267 37.5459 27.7913C37.5459 26.7841 36.7253 25.9624 35.7147 25.9624H28.7064ZM47.0888 40.2608H28.7064C27.6959 40.2608 26.8776 39.439 26.8776 38.4295C26.8776 37.42 27.6959 36.5959 28.7064 36.5959H47.0888C48.097 36.5959 48.9177 37.42 48.9177 38.4295C48.9177 39.439 48.097 40.2608 47.0888 40.2608ZM47.089 50.9899H28.7066C28.0032 51.0838 27.3233 50.7317 26.9481 50.1447C26.573 49.5343 26.573 48.7595 26.9481 48.1726C27.3233 47.5622 28.0032 47.2335 28.7066 47.3039H47.089C48.0245 47.3978 48.7303 48.1961 48.7303 49.1587C48.7303 50.0954 48.0245 50.896 47.089 50.9899Z" fill="url(#paint2_linear_171_5866)"/>
<path d="M28.7064 25.9859V26.3859H29.1064V25.9859H28.7064ZM28.7064 25.9624V25.5624H28.3064V25.9624H28.7064ZM28.7066 50.9899V50.5899H28.68L28.6537 50.5934L28.7066 50.9899ZM47.089 50.9899V51.3899H47.109L47.129 51.3879L47.089 50.9899ZM26.9481 50.1447L26.6073 50.3542L26.6111 50.3601L26.9481 50.1447ZM26.9481 48.1726L27.2852 48.388L27.2889 48.382L26.9481 48.1726ZM28.7066 47.3039L28.6668 47.7019L28.6867 47.7039H28.7066V47.3039ZM47.089 47.3039L47.129 46.9059L47.109 46.9039H47.089V47.3039ZM29.1064 25.9859V25.9624H28.3064V25.9859H29.1064ZM27.2776 27.8171C27.2776 27.0277 27.9176 26.3859 28.7064 26.3859V25.5859C27.4741 25.5859 26.4776 26.5875 26.4776 27.8171H27.2776ZM28.7064 29.2484C27.9176 29.2484 27.2776 28.6066 27.2776 27.8171H26.4776C26.4776 29.0468 27.4741 30.0484 28.7064 30.0484V29.2484ZM35.7147 29.2484H28.7064V30.0484H35.7147V29.2484ZM37.1459 27.7913C37.1459 28.6096 36.5006 29.2484 35.7147 29.2484V30.0484C36.95 30.0484 37.9459 29.0438 37.9459 27.7913H37.1459ZM35.7147 26.3624C36.5045 26.3624 37.1459 27.0052 37.1459 27.7913H37.9459C37.9459 26.563 36.946 25.5624 35.7147 25.5624V26.3624ZM28.7064 26.3624H35.7147V25.5624H28.7064V26.3624ZM28.7064 40.6608H47.0888V39.8608H28.7064V40.6608ZM26.4776 38.4295C26.4776 39.6591 27.4741 40.6608 28.7064 40.6608V39.8608C27.9176 39.8608 27.2776 39.219 27.2776 38.4295H26.4776ZM28.7064 36.1959C27.4735 36.1959 26.4776 37.2005 26.4776 38.4295H27.2776C27.2776 37.6394 27.9183 36.9959 28.7064 36.9959V36.1959ZM47.0888 36.1959H28.7064V36.9959H47.0888V36.1959ZM49.3177 38.4295C49.3177 37.2002 48.3191 36.1959 47.0888 36.1959V36.9959C47.875 36.9959 48.5177 37.6397 48.5177 38.4295H49.3177ZM47.0888 40.6608C48.3184 40.6608 49.3177 39.6595 49.3177 38.4295H48.5177C48.5177 39.2186 47.8756 39.8608 47.0888 39.8608V40.6608ZM28.7066 51.3899H47.089V50.5899H28.7066V51.3899ZM26.6111 50.3601C27.0624 51.0663 27.8886 51.5027 28.7596 51.3864L28.6537 50.5934C28.1178 50.665 27.5841 50.397 27.2851 49.9293L26.6111 50.3601ZM26.6111 47.9572C26.1504 48.678 26.1548 49.6179 26.6073 50.3542L27.2889 49.9353C26.9911 49.4507 26.9955 48.8411 27.2851 48.388L26.6111 47.9572ZM28.7465 46.9059C27.8928 46.8204 27.0639 47.2202 26.6073 47.9632L27.2889 48.382C27.5826 47.9041 28.1137 47.6465 28.6668 47.7019L28.7465 46.9059ZM47.089 46.9039H28.7066V47.7039H47.089V46.9039ZM49.1303 49.1587C49.1303 47.9987 48.2768 47.0211 47.129 46.9059L47.049 47.7019C47.7723 47.7745 48.3303 48.3935 48.3303 49.1587H49.1303ZM47.129 51.3879C48.274 51.273 49.1303 50.2957 49.1303 49.1587H48.3303C48.3303 49.8951 47.7751 50.519 47.049 50.5919L47.129 51.3879Z" fill="url(#paint3_linear_171_5866)" mask="url(#path-5-inside-1_171_5866)"/>
</g>
<defs>
<filter id="filter0_f_171_5866" x="1.92432" y="2.14746" width="46.8542" height="50.1694" filterUnits="userSpaceOnUse" color-interpolation-filters="sRGB">
<feFlood flood-opacity="0" result="BackgroundImageFix"/>
<feBlend mode="normal" in="SourceGraphic" in2="BackgroundImageFix" result="shape"/>
<feGaussianBlur stdDeviation="5" result="effect1_foregroundBlur_171_5866"/>
</filter>
<filter id="filter1_b_171_5866" x="-8.20435" y="-9.95557" width="92.2043" height="96.9556" filterUnits="userSpaceOnUse" color-interpolation-filters="sRGB">
<feFlood flood-opacity="0" result="BackgroundImageFix"/>
<feGaussianBlur in="BackgroundImage" stdDeviation="12"/>
<feComposite in2="SourceAlpha" operator="in" result="effect1_backgroundBlur_171_5866"/>
<feBlend mode="normal" in="SourceGraphic" in2="effect1_backgroundBlur_171_5866" result="shape"/>
</filter>
<filter id="filter2_bd_171_5866" x="11.6667" y="10.9624" width="52.251" height="55.0425" filterUnits="userSpaceOnUse" color-interpolation-filters="sRGB">
<feFlood flood-opacity="0" result="BackgroundImageFix"/>
<feGaussianBlur in="BackgroundImage" stdDeviation="7.5"/>
<feComposite in2="SourceAlpha" operator="in" result="effect1_backgroundBlur_171_5866"/>
<feColorMatrix in="SourceAlpha" type="matrix" values="0 0 0 0 0 0 0 0 0 0 0 0 0 0 0 0 0 0 127 0" result="hardAlpha"/>
<feOffset dx="5" dy="5"/>
<feGaussianBlur stdDeviation="5"/>
<feColorMatrix type="matrix" values="0 0 0 0 0.577356 0 0 0 0 0.359375 0 0 0 0 0.9375 0 0 0 0.5 0"/>
<feBlend mode="normal" in2="effect1_backgroundBlur_171_5866" result="effect2_dropShadow_171_5866"/>
<feBlend mode="normal" in="SourceGraphic" in2="effect2_dropShadow_171_5866" result="shape"/>
</filter>
<linearGradient id="paint0_linear_171_5866" x1="20.3832" y1="5.46891" x2="32.55" y2="50.8164" gradientUnits="userSpaceOnUse">
<stop stop-color="#BC94FF"/>
<stop offset="1" stop-color="#9F66FF"/>
</linearGradient>
<linearGradient id="paint1_linear_171_5866" x1="23.5139" y1="20.5148" x2="53.9791" y2="54.4289" gradientUnits="userSpaceOnUse">
<stop stop-color="white" stop-opacity="0.25"/>
<stop offset="1" stop-color="white" stop-opacity="0"/>
</linearGradient>
<linearGradient id="paint2_linear_171_5866" x1="47.3401" y1="30.4846" x2="22.5491" y2="31.2028" gradientUnits="userSpaceOnUse">
<stop stop-color="white"/>
<stop offset="1" stop-color="white" stop-opacity="0.2"/>
</linearGradient>
<linearGradient id="paint3_linear_171_5866" x1="30.2087" y1="28.8799" x2="46.4756" y2="46.7809" gradientUnits="userSpaceOnUse">
<stop stop-color="white" stop-opacity="0.25"/>
<stop offset="1" stop-color="white" stop-opacity="0"/>
</linearGradient>
</defs>
</svg>
