<svg width="55" height="53" viewBox="0 0 55 53" fill="none" xmlns="http://www.w3.org/2000/svg">
<path d="M44.0739 8.77741L30.2607 5.10669C25.2503 3.77523 21.5469 5.90953 20.2 10.895L15.638 27.7801C14.2689 32.8472 16.4178 36.4666 21.4282 37.7981L35.2415 41.4688C40.3326 42.8217 43.9359 40.7309 45.3049 35.6637L49.8669 18.7786C51.2139 13.7932 49.1651 10.1303 44.0739 8.77741Z" fill="url(#paint0_linear_171_5839)"/>
<g opacity="0.5" filter="url(#filter0_f_171_5839)">
<path d="M40.4649 13.4013L31.0538 10.9004C27.6401 9.99326 25.117 11.4474 24.1993 14.844L21.0912 26.348C20.1585 29.8003 21.6225 32.2662 25.0361 33.1733L34.4472 35.6742C37.9159 36.596 40.3708 35.1715 41.3036 31.7192L44.4117 20.2152C45.3294 16.8186 43.9336 14.3231 40.4649 13.4013Z" fill="#39B93A"/>
</g>
<g filter="url(#filter1_b_171_5839)">
<mask id="path-3-outside-1_171_5839" maskUnits="userSpaceOnUse" x="0" y="11.0596" width="42" height="41" fill="black">
<rect fill="white" y="11.0596" width="42" height="41"/>
<path d="M29.1525 12.0596H12.1314C5.47613 12.0596 1 16.6935 1 23.5859V39.4931C1 46.3661 5.47613 51 12.1314 51H29.1525C35.8078 51 40.2643 46.3661 40.2643 39.4931V23.5859C40.2643 16.6935 35.8078 12.0596 29.1525 12.0596"/>
</mask>
<path d="M29.1525 12.0596H12.1314C5.47613 12.0596 1 16.6935 1 23.5859V39.4931C1 46.3661 5.47613 51 12.1314 51H29.1525C35.8078 51 40.2643 46.3661 40.2643 39.4931V23.5859C40.2643 16.6935 35.8078 12.0596 29.1525 12.0596" fill="#72DC60" fill-opacity="0.35"/>
<path d="M29.1525 13.0596C29.7048 13.0596 30.1525 12.6119 30.1525 12.0596C30.1525 11.5073 29.7048 11.0596 29.1525 11.0596V13.0596ZM29.1525 11.0596C28.6002 11.0596 28.1525 11.5073 28.1525 12.0596C28.1525 12.6119 28.6002 13.0596 29.1525 13.0596V11.0596ZM29.1525 11.0596H12.1314V13.0596H29.1525V11.0596ZM12.1314 11.0596C8.56362 11.0596 5.51061 12.307 3.35068 14.5434C1.19365 16.7768 0 19.9206 0 23.5859H2C2 20.3589 3.04442 17.7394 4.78928 15.9328C6.53122 14.1291 9.04393 13.0596 12.1314 13.0596V11.0596ZM0 23.5859V39.4931H2V23.5859H0ZM0 39.4931C0 43.1494 1.1941 46.2883 3.35109 48.519C5.51091 50.7526 8.56366 52 12.1314 52V50C9.04389 50 6.53093 48.9304 4.78886 47.1288C3.04396 45.3243 2 42.7097 2 39.4931H0ZM12.1314 52H29.1525V50H12.1314V52ZM29.1525 52C32.7204 52 35.7688 50.7525 37.9239 48.5181C40.0759 46.287 41.2643 43.1482 41.2643 39.4931H39.2643C39.2643 42.7109 38.2244 45.3256 36.4844 47.1297C34.7474 48.9305 32.2398 50 29.1525 50V52ZM41.2643 39.4931V23.5859H39.2643V39.4931H41.2643ZM41.2643 23.5859C41.2643 19.9218 40.0763 16.7781 37.9243 14.5443C35.7691 12.3071 32.7205 11.0596 29.1525 11.0596V13.0596C32.2398 13.0596 34.7471 14.129 36.4839 15.9319C38.224 17.7381 39.2643 20.3576 39.2643 23.5859H41.2643Z" fill="url(#paint1_linear_171_5839)" mask="url(#path-3-outside-1_171_5839)"/>
</g>
<g filter="url(#filter2_bd_171_5839)">
<mask id="path-5-inside-2_171_5839" fill="white">
<path d="M18.3018 37.8537C17.8621 37.8537 17.4223 37.6882 17.0866 37.3552L12.4279 32.7349C11.7565 32.0691 11.7565 30.9904 12.4279 30.3265C13.0993 29.6606 14.185 29.6586 14.8564 30.3245L18.3018 33.7415L26.406 25.7042C27.0774 25.0384 28.163 25.0384 28.8345 25.7042C29.5059 26.3701 29.5059 27.4488 28.8345 28.1147L19.517 37.3552C19.1813 37.6882 18.7416 37.8537 18.3018 37.8537"/>
</mask>
<path d="M18.3018 37.8537C17.8621 37.8537 17.4223 37.6882 17.0866 37.3552L12.4279 32.7349C11.7565 32.0691 11.7565 30.9904 12.4279 30.3265C13.0993 29.6606 14.185 29.6586 14.8564 30.3245L18.3018 33.7415L26.406 25.7042C27.0774 25.0384 28.163 25.0384 28.8345 25.7042C29.5059 26.3701 29.5059 27.4488 28.8345 28.1147L19.517 37.3552C19.1813 37.6882 18.7416 37.8537 18.3018 37.8537" fill="url(#paint2_linear_171_5839)"/>
<path d="M12.4279 30.3265L12.5685 30.4687L12.5687 30.4685L12.4279 30.3265ZM18.3018 33.7415L18.161 33.8836L18.3018 34.0232L18.4427 33.8836L18.3018 33.7415ZM28.8345 28.1147L28.6936 27.9727L28.6936 27.9727L28.8345 28.1147ZM19.517 37.3552L19.6579 37.4972L19.6579 37.4972L19.517 37.3552ZM18.3018 37.6537C17.9122 37.6537 17.5238 37.5072 17.2274 37.2132L16.9458 37.4972C17.3208 37.8691 17.812 38.0537 18.3018 38.0537V37.6537ZM17.2274 37.2132L12.5687 32.5929L12.287 32.8769L16.9458 37.4972L17.2274 37.2132ZM12.5687 32.5929C11.9761 32.0052 11.9764 31.0542 12.5685 30.4687L12.2873 30.1843C11.5366 30.9266 11.5369 32.1329 12.287 32.8769L12.5687 32.5929ZM12.5687 30.4685C13.1625 29.8796 14.1224 29.8783 14.7155 30.4665L14.9972 30.1825C14.2475 29.439 13.0361 29.4416 12.287 30.1845L12.5687 30.4685ZM14.7155 30.4665L18.161 33.8836L18.4427 33.5995L14.9972 30.1825L14.7155 30.4665ZM18.4427 33.8836L26.5468 25.8463L26.2651 25.5622L18.161 33.5995L18.4427 33.8836ZM26.5468 25.8463C27.1403 25.2577 28.1002 25.2577 28.6936 25.8463L28.9753 25.5622C28.2259 24.819 27.0145 24.819 26.2651 25.5622L26.5468 25.8463ZM28.6936 25.8463C29.2862 26.4339 29.2862 27.385 28.6936 27.9727L28.9753 28.2567C29.7256 27.5125 29.7256 26.3064 28.9753 25.5622L28.6936 25.8463ZM28.6936 27.9727L19.3762 37.2132L19.6579 37.4972L28.9753 28.2567L28.6936 27.9727ZM19.3762 37.2132C19.0798 37.5072 18.6915 37.6537 18.3018 37.6537V38.0537C18.7917 38.0537 19.2829 37.8691 19.6579 37.4972L19.3762 37.2132Z" fill="url(#paint3_linear_171_5839)" fill-opacity="0.5" mask="url(#path-5-inside-2_171_5839)"/>
</g>
<defs>
<filter id="filter0_f_171_5839" x="10.8157" y="0.635986" width="43.8708" height="45.3123" filterUnits="userSpaceOnUse" color-interpolation-filters="sRGB">
<feFlood flood-opacity="0" result="BackgroundImageFix"/>
<feBlend mode="normal" in="SourceGraphic" in2="BackgroundImageFix" result="shape"/>
<feGaussianBlur stdDeviation="5" result="effect1_foregroundBlur_171_5839"/>
</filter>
<filter id="filter1_b_171_5839" x="-24" y="-12.9404" width="89.2642" height="88.9404" filterUnits="userSpaceOnUse" color-interpolation-filters="sRGB">
<feFlood flood-opacity="0" result="BackgroundImageFix"/>
<feGaussianBlur in="BackgroundImage" stdDeviation="12"/>
<feComposite in2="SourceAlpha" operator="in" result="effect1_backgroundBlur_171_5839"/>
<feBlend mode="normal" in="SourceGraphic" in2="effect1_backgroundBlur_171_5839" result="shape"/>
</filter>
<filter id="filter2_bd_171_5839" x="-3.07568" y="10.2048" width="47.4138" height="42.6489" filterUnits="userSpaceOnUse" color-interpolation-filters="sRGB">
<feFlood flood-opacity="0" result="BackgroundImageFix"/>
<feGaussianBlur in="BackgroundImage" stdDeviation="7.5"/>
<feComposite in2="SourceAlpha" operator="in" result="effect1_backgroundBlur_171_5839"/>
<feColorMatrix in="SourceAlpha" type="matrix" values="0 0 0 0 0 0 0 0 0 0 0 0 0 0 0 0 0 0 127 0" result="hardAlpha"/>
<feOffset dx="5" dy="5"/>
<feGaussianBlur stdDeviation="5"/>
<feColorMatrix type="matrix" values="0 0 0 0 0.454902 0 0 0 0 0.870588 0 0 0 0 0.376471 0 0 0 0.5 0"/>
<feBlend mode="normal" in2="effect1_backgroundBlur_171_5839" result="effect2_dropShadow_171_5839"/>
<feBlend mode="normal" in="SourceGraphic" in2="effect2_dropShadow_171_5839" result="shape"/>
</filter>
<linearGradient id="paint0_linear_171_5839" x1="52" y1="10.8837" x2="22.0124" y2="29.3895" gradientUnits="userSpaceOnUse">
<stop stop-color="#9BF763"/>
<stop offset="1" stop-color="#26AB5B"/>
</linearGradient>
<linearGradient id="paint1_linear_171_5839" x1="7.25023" y1="16.5962" x2="32.0459" y2="47.5617" gradientUnits="userSpaceOnUse">
<stop stop-color="white" stop-opacity="0.25"/>
<stop offset="1" stop-color="white" stop-opacity="0"/>
</linearGradient>
<linearGradient id="paint2_linear_171_5839" x1="28.1034" y1="27.489" x2="8.72461" y2="28.3588" gradientUnits="userSpaceOnUse">
<stop stop-color="white"/>
<stop offset="1" stop-color="white" stop-opacity="0.2"/>
</linearGradient>
<linearGradient id="paint3_linear_171_5839" x1="13.8002" y1="29.4479" x2="28.5864" y2="29.5603" gradientUnits="userSpaceOnUse">
<stop stop-color="white"/>
<stop offset="1" stop-color="white" stop-opacity="0"/>
</linearGradient>
</defs>
</svg>
