<svg width="55" height="57" viewBox="0 0 55 57" fill="none" xmlns="http://www.w3.org/2000/svg">
<path d="M35.5845 7.48705L19.959 3.36545C14.2912 1.87045 10.102 4.26691 8.57832 9.8647L3.41781 28.8238C1.86917 34.5133 4.29991 38.5773 9.96769 40.0723L25.5932 44.1939C31.3524 45.713 35.4284 43.3653 36.977 37.6758L42.1375 18.7167C43.6612 13.1189 41.3436 9.00615 35.5845 7.48705Z" fill="url(#paint0_linear_171_5859)"/>
<g opacity="0.5" filter="url(#filter0_f_171_5859)">
<path d="M18.2564 23.2413C15.0826 22.909 12.6724 20.2332 12.6724 17.042V17.042C12.6724 13.8508 15.0826 11.175 18.2564 10.8426L23.0979 10.3356C27.078 9.91884 30.5432 13.0401 30.5432 17.042V17.042C30.5432 21.0439 27.078 24.1652 23.0979 23.7484L18.2564 23.2413Z" fill="#0062FF"/>
</g>
<g filter="url(#filter1_b_171_5859)">
<path d="M47.7894 26.8339C47.7894 19.0962 43.0244 14.5386 34.9606 14.5386H13.8309C5.76505 14.5386 1 19.0962 1 26.8339V43.6868C1 51.4246 5.76505 56.0001 13.8309 56.0001H34.9689C43.0327 56.0001 47.7978 51.4246 47.7978 43.6868C47.7978 35.9491 47.7894 27.6888 47.7894 26.8339Z" fill="#3EA0FE" fill-opacity="0.35"/>
<path d="M48.2894 26.8339C48.2894 22.8607 47.0634 19.6445 44.7448 17.4235C42.429 15.2053 39.0848 14.0386 34.9606 14.0386H13.8309C9.70576 14.0386 6.36096 15.2052 4.04491 17.4235C1.72599 19.6445 0.5 22.8607 0.5 26.8339V43.6868C0.5 47.66 1.72594 50.8804 4.04453 53.1058C6.3604 55.3287 9.70525 56.5001 13.8309 56.5001H34.9689C39.0936 56.5001 42.4379 55.3286 44.7535 53.1058C47.0718 50.8804 48.2978 47.66 48.2978 43.6868C48.2978 39.8178 48.2957 35.8181 48.2936 32.6789C48.2926 31.105 48.2915 29.7476 48.2907 28.7313C48.29 27.7203 48.2894 27.0469 48.2894 26.8339Z" stroke="url(#paint1_linear_171_5859)" stroke-linecap="round" stroke-linejoin="round"/>
</g>
<g filter="url(#filter2_b_171_5859)">
<path d="M30.9108 36.3031C31.5424 39.1201 34.061 41.102 36.9364 41.0505H49.8333C51.0296 41.0505 52.0001 40.0789 52.0001 38.8778V31.3805C51.9975 30.1821 51.0296 29.2079 49.8333 29.2053H36.7053C33.4345 29.2156 30.7927 31.878 30.7979 35.1588C30.7979 35.5428 30.8364 35.9269 30.9108 36.3031Z" fill="#3EA0FE" fill-opacity="0.35"/>
<path d="M30.4203 36.4002L30.4202 36.4002L30.4229 36.4125C31.1059 39.4588 33.8291 41.6041 36.9408 41.5505H49.8333C51.3068 41.5505 52.5001 40.354 52.5001 38.8778L52.5001 31.3805L52.5001 31.3795C52.4969 29.9079 51.3082 28.7085 49.8343 28.7053H49.8333L36.7053 28.7053L36.7037 28.7053C33.1558 28.7165 30.2925 31.6041 30.2979 35.1592C30.2979 35.5764 30.3397 35.9928 30.4203 36.4002Z" stroke="url(#paint2_linear_171_5859)" stroke-linecap="round" stroke-linejoin="round"/>
</g>
<g filter="url(#filter3_bd_171_5859)">
<ellipse cx="36.8145" cy="35.1283" rx="2.57865" ry="2.53846" fill="url(#paint3_linear_171_5859)"/>
<path d="M39.2931 35.1283C39.2931 36.4736 38.1849 37.5668 36.8145 37.5668C35.4441 37.5668 34.3358 36.4736 34.3358 35.1283C34.3358 33.7831 35.4441 32.6898 36.8145 32.6898C38.1849 32.6898 39.2931 33.7831 39.2931 35.1283Z" stroke="url(#paint4_linear_171_5859)" stroke-opacity="0.5" stroke-width="0.2"/>
</g>
<g filter="url(#filter4_bd_171_5859)">
<path d="M25.3037 26.9059H12.1067C11.1188 26.9019 10.3201 26.1294 10.3242 25.1811C10.3284 24.2369 11.125 23.4723 12.1067 23.4683H25.312C26.2999 23.4643 27.107 24.2309 27.1111 25.1791C27.1153 26.1294 26.3166 26.9019 25.3286 26.9059H25.312H25.3037Z" fill="url(#paint5_linear_171_5859)"/>
<path d="M25.312 23.5683L25.3124 23.5683C26.2492 23.5645 27.0072 24.2905 27.0111 25.1796C27.015 26.0707 26.2649 26.8021 25.3284 26.8059H25.312H25.3037H12.1069C11.1704 26.8021 10.4203 26.0706 10.4242 25.1816C10.4281 24.296 11.1764 23.5722 12.1069 23.5683L25.312 23.5683Z" stroke="url(#paint6_linear_171_5859)" stroke-opacity="0.5" stroke-width="0.2"/>
</g>
<defs>
<filter id="filter0_f_171_5859" x="2.67236" y="0.29834" width="37.8708" height="33.4873" filterUnits="userSpaceOnUse" color-interpolation-filters="sRGB">
<feFlood flood-opacity="0" result="BackgroundImageFix"/>
<feBlend mode="normal" in="SourceGraphic" in2="BackgroundImageFix" result="shape"/>
<feGaussianBlur stdDeviation="5" result="effect1_foregroundBlur_171_5859"/>
</filter>
<filter id="filter1_b_171_5859" x="-24" y="-10.4614" width="96.7979" height="91.4614" filterUnits="userSpaceOnUse" color-interpolation-filters="sRGB">
<feFlood flood-opacity="0" result="BackgroundImageFix"/>
<feGaussianBlur in="BackgroundImage" stdDeviation="12"/>
<feComposite in2="SourceAlpha" operator="in" result="effect1_backgroundBlur_171_5859"/>
<feBlend mode="normal" in="SourceGraphic" in2="effect1_backgroundBlur_171_5859" result="shape"/>
</filter>
<filter id="filter2_b_171_5859" x="5.79785" y="4.20532" width="71.2021" height="61.8462" filterUnits="userSpaceOnUse" color-interpolation-filters="sRGB">
<feFlood flood-opacity="0" result="BackgroundImageFix"/>
<feGaussianBlur in="BackgroundImage" stdDeviation="12"/>
<feComposite in2="SourceAlpha" operator="in" result="effect1_backgroundBlur_171_5859"/>
<feBlend mode="normal" in="SourceGraphic" in2="effect1_backgroundBlur_171_5859" result="shape"/>
</filter>
<filter id="filter3_bd_171_5859" x="19.2358" y="17.5898" width="35.1572" height="35.0769" filterUnits="userSpaceOnUse" color-interpolation-filters="sRGB">
<feFlood flood-opacity="0" result="BackgroundImageFix"/>
<feGaussianBlur in="BackgroundImage" stdDeviation="7.5"/>
<feComposite in2="SourceAlpha" operator="in" result="effect1_backgroundBlur_171_5859"/>
<feColorMatrix in="SourceAlpha" type="matrix" values="0 0 0 0 0 0 0 0 0 0 0 0 0 0 0 0 0 0 127 0" result="hardAlpha"/>
<feOffset dx="5" dy="5"/>
<feGaussianBlur stdDeviation="5"/>
<feColorMatrix type="matrix" values="0 0 0 0 0.15375 0 0 0 0 0.522433 0 0 0 0 0.9 0 0 0 0.5 0"/>
<feBlend mode="normal" in2="effect1_backgroundBlur_171_5859" result="effect2_dropShadow_171_5859"/>
<feBlend mode="normal" in="SourceGraphic" in2="effect2_dropShadow_171_5859" result="shape"/>
</filter>
<filter id="filter4_bd_171_5859" x="-4.67578" y="8.46826" width="46.7869" height="33.4377" filterUnits="userSpaceOnUse" color-interpolation-filters="sRGB">
<feFlood flood-opacity="0" result="BackgroundImageFix"/>
<feGaussianBlur in="BackgroundImage" stdDeviation="7.5"/>
<feComposite in2="SourceAlpha" operator="in" result="effect1_backgroundBlur_171_5859"/>
<feColorMatrix in="SourceAlpha" type="matrix" values="0 0 0 0 0 0 0 0 0 0 0 0 0 0 0 0 0 0 127 0" result="hardAlpha"/>
<feOffset dx="5" dy="5"/>
<feGaussianBlur stdDeviation="5"/>
<feColorMatrix type="matrix" values="0 0 0 0 0.15375 0 0 0 0 0.522433 0 0 0 0 0.9 0 0 0 0.5 0"/>
<feBlend mode="normal" in2="effect1_backgroundBlur_171_5859" result="effect2_dropShadow_171_5859"/>
<feBlend mode="normal" in="SourceGraphic" in2="effect2_dropShadow_171_5859" result="shape"/>
</filter>
<linearGradient id="paint0_linear_171_5859" x1="42.1501" y1="9.21885" x2="-1.46832" y2="22.6421" gradientUnits="userSpaceOnUse">
<stop stop-color="#39AFFD"/>
<stop offset="1" stop-color="#477FFF"/>
</linearGradient>
<linearGradient id="paint1_linear_171_5859" x1="8.44944" y1="19.3689" x2="42.0218" y2="57.9697" gradientUnits="userSpaceOnUse">
<stop stop-color="white" stop-opacity="0.25"/>
<stop offset="1" stop-color="white" stop-opacity="0"/>
</linearGradient>
<linearGradient id="paint2_linear_171_5859" x1="34.1729" y1="30.5854" x2="42.3406" y2="45.477" gradientUnits="userSpaceOnUse">
<stop stop-color="white" stop-opacity="0.25"/>
<stop offset="1" stop-color="white" stop-opacity="0"/>
</linearGradient>
<linearGradient id="paint3_linear_171_5859" x1="39.0275" y1="33.5066" x2="33.2829" y2="33.6969" gradientUnits="userSpaceOnUse">
<stop stop-color="white"/>
<stop offset="1" stop-color="white" stop-opacity="0.2"/>
</linearGradient>
<linearGradient id="paint4_linear_171_5859" x1="34.7914" y1="34.2929" x2="39.1707" y2="34.3175" gradientUnits="userSpaceOnUse">
<stop stop-color="white"/>
<stop offset="1" stop-color="white" stop-opacity="0"/>
</linearGradient>
<linearGradient id="paint5_linear_171_5859" x1="25.9209" y1="24.089" x2="7.66483" y2="26.9957" gradientUnits="userSpaceOnUse">
<stop stop-color="white"/>
<stop offset="1" stop-color="white" stop-opacity="0.2"/>
</linearGradient>
<linearGradient id="paint6_linear_171_5859" x1="12.1325" y1="24.6214" x2="26.377" y2="25.0054" gradientUnits="userSpaceOnUse">
<stop stop-color="white"/>
<stop offset="1" stop-color="white" stop-opacity="0"/>
</linearGradient>
</defs>
</svg>
